<?xml version="1.0" encoding="utf-8"?>
<!-- Generator: Adobe Illustrator 24.2.1, SVG Export Plug-In . SVG Version: 6.00 Build 0)  -->
<svg version="1.1" xmlns="http://www.w3.org/2000/svg" xmlns:xlink="http://www.w3.org/1999/xlink" x="0px" y="0px" viewBox="0 0 889.8 90.7" style="enable-background:new 0 0 889.8 90.7;" xml:space="preserve">
	<g>
		<path class="st1" d="M1707.2,75.9c-2.5-2.4-5.4-4.4-8.7-5.6c-2.8-1-4.3,0.1-4.1,3c0.2,2.2,0.8,4.4,0.9,6.5
		c0.7,11.8-3.3,19.9-13.4,23.4c-3.2,1.2-3.9,1-6.1-1.8c-4.2-5.3-9.4-9.3-15.1-12.8c-7.6-4.8-16-7.4-24.5-9.7c-4-1.1-4.3-1.8-1.9-5.1
		c4.8-7,9.7-14,14.7-20.9c8.4-11.5,17.1-22.7,24.7-34.7c5.2-8.1,9.7-16.6,12.3-26c1.8-6.4,3.1-13,2.6-19.6c-0.6-9.3-2.9-18.4-6.5-27
		c-5.8-14-13.6-27-21.6-39.9c-5.9-9.5-12.4-18.6-17.2-28.8c-11.7-25.2-17.7-51.9-21.4-79.1c-2.3-16.6-3.9-33.2-8.5-49.4
		c-0.6-2.2-0.2-3.9,1-5.8c2.5-4.2,4.8-8.5,7.1-12.8c1.3-2.5,2.8-4.8,5-6.8c3.6-3.1,3.5-5.8,0-9.1c-1-1-2.2-2-3.5-2.4
		c-4.8-1.2-8.2-4.7-11.7-7.6c-5.2-4.2-11.4-6.6-17-10c-0.9-0.5-2.1-0.7-3.2-0.7c-3.5,0.1-6.4-1.2-9.2-3.1c-1.8-1.3-3.8-2.2-6-2.6
		c-1.9-0.4-3.6-1.2-5.3-2.1c-9.8-5.2-19.9-9.6-30.6-12.6c-7-2-7.2-2-7.1-9.6c0.1-8.7-0.4-17.4-1.4-26c-1.5-12.7-3.2-25.3-4.4-38
		c-0.1-1.1,0-2.4-0.9-3.1c-3.5-2.4-3.3-6.2-3.9-9.7c-0.5-3.1-1.2-6.2-2.1-9.2c-1.1-3.9-2.6-4.5-6.3-2.7c-7.6,3.8-15.1,8-21.8,13.3
		c-2.7,2.2-5.5,3.6-8.8,4.2c-5,0.9-10,1.6-14.9,2.6c-11.7,2.6-23.3,5.9-34.2,10.9c-15.4,7-29.3,16-40.9,28.4c-1.7,1.8-3,2.2-5.3,1.4
		c-9.2-3.4-18.8-5.5-28.5-6.9c-4.9-0.7-9.7-0.8-14.5,0.8c-7.1,2.3-14.8,1.1-21.9,3.2c-0.1,0-0.3,0-0.5,0c-8.3-1.9-16.7,1.8-24.9-0.4
		c-0.6-0.1-1.3,0.1-1.9,0.2c-5.8,0.8-11.4,2.5-16.9,4.4c-7.7,2.8-15.3,5.9-22.5,9.9c-2.6,1.4-4.6,1.2-6.7-1c-3.1-3.2-6.7-5.8-10.5-8
		c-21.5-12.4-44.8-18.2-69.5-19c-6.3-0.2-12.6-0.1-18.9,0c-3.6,0.1-6.8-0.7-10-2.4c-7.3-3.8-15.2-6.2-23-8.5c-4.9-1.5-6.9,0-7.1,5.1
		c-0.2,3.8-0.2,7.6,0.1,11.3c0.2,2.5,0.4,4.6-1.8,6.4c-1.3,1-0.8,2.6-0.7,4c0.8,8.2,1.6,16.3,2.1,24.5c0.8,13.9,2.1,27.7,4.6,41.3
		c0.9,5.1,1,5.2-3.9,7.5c-6.3,3-12.5,6.3-17.5,11.1c-2.9,2.8-6.2,4.4-9.6,6.2c-5.5,3-11.2,5.3-16.9,7.8c-6.2,2.7-12.4,6.3-16.7,12.1
		c-0.4,0.6-1.1,1.1-1.8,1.5c-3.5,2-5.6,5.9-9.8,7c-0.7,0.2-1.2,1-1.7,1.6c-3.9,4.1-3.9,6.3,0.6,9.6c2.4,1.8,4.1,3.9,5.6,6.3
		c6.4,10.3,14.2,19.7,22.5,28.6c1.4,1.5,3.6,2.6,3.3,4.9c-0.4,3.7,0.8,7.7-1.6,11c-1.5,2.1-2.5,4.4-3.2,6.8c-0.8,2.6-1.9,4.9-3.8,7
		c-2.1,2.4-3.4,5.4-3.7,8.6c-0.3,4.5-0.4,9.3,4.5,11.9c1.6,0.9,1.7,2.1,1.3,3.6c-0.7,2.9-1.4,5.8-2.2,8.7
		c-4.4,16.4-10.3,32.1-19.3,46.6c-5,8-10.2,16-15.1,24c-7.8,12.6-14.9,25.6-19.5,39.8c-5,15.4-4.7,30.7,1.4,45.8
		c4.8,11.6,11.7,22,18.9,32.1c9.7,13.5,19.8,26.5,29.1,40.2c3.9,5.8,3.9,6-2.9,7.8c-14.8,4-28.1,10.4-37.9,22.6
		c-1.2,1.6-2.8,2-4.6,1.3c-6.7-2.3-11.5-6.3-13.4-13.4c-1.4-5.2-1.2-10.3-0.1-15.5c0.3-1.5,0.8-3.2-0.8-4.4c-1.6-1.2-3-0.2-4.4,0.5
		c-7.6,3.7-12.8,9.7-16.4,17.1c-3.2,6.4-4.2,13.2-2.7,20.3c2.9,13.5,11.6,21.8,24.3,25.9c3.7,1.2,5.1,2.8,5.8,6.7
		c2.8,16.5,10.2,30.8,22.3,42.4c8.1,7.7,17.5,13.4,27.8,17.7c1.9,0.8,3.8,1.5,5.7,2.3c1.6,0.6,1.9,1.6,0.7,2.9c-2,2-4,4.1-6.2,5.8
		c-4.2,3.3-7.2,7.5-10.2,11.8c-1.5,2.3-2.4,4.8-2.5,7.5c-0.2,4,1.9,7.8,5.7,8.9c4.8,1.4,9.7,1.4,14.2-1.3c2.7-1.7,2.9-2.7,0.9-5.2
		c-1.1-1.4-2.2-2.7-2.5-4.5c-1.1-6.8,0.3-13.2,3.9-19c1.9-3,4.5-3.7,7.8-2.6c6.8,2.2,8.6,7.3,4.6,13.4c-0.1,0.1-0.2,0.3-0.3,0.4
		c-0.4,0.7-0.8,1.4-0.4,2.2c0.5,1,1.5,1.1,2.4,1.1c3.2-0.3,8.2-4.5,8.9-7.7c0.6-2.9-0.4-5.3-2.4-7.3c-1.6-1.6-3.5-2.7-5.4-3.9
		c-0.9-0.5-2.3-0.5-2.4-2.5c15.3-6,30.2-13,44.6-21.1c0.1-0.1,0.3,0,0.4,0.1c0.1,0.1,0.2,0.2,0.6,0.5c0.2,1.7-0.6,3.5-1,5.3
		c-1.3,6.5-0.4,12.6,3.5,18c3.5,4.8,8.3,7.1,14.4,6.3c1.7-0.2,3.6-0.8,4.3-2.5c0.8-1.9-1.1-2.8-2.1-3.8
		c-10.7-11.2-9.8-25.5-2.9-36.6c1.5-2.4,3.9-4.1,5.6-6.4c5.6-7.7,11.9-14.6,18.7-21.3c4.9-4.8,8.3-10.6,10.5-17.2
		c3.3-9.9,2.6-19.9,1.4-30c-2.6-20.8-7-41.3-8.8-62.3c-0.2-2.4-1.6-5.5,0.8-7c2.1-1.3,4.8,0.1,7.1,1.3c3,1.5,4.2,1.3,5.8-1.6
		c2.5-4.5,3.6-9.4,2-14.6c-0.4-1.3-1.5-2.5-0.1-3.9c2.6-2.5,2.7-5.9,2.9-9.2c0.1-1.8,0-3.7,0-5.5c0.4,0,0.7-0.1,1.1-0.1
		c0.6,0.7,1.3,1.4,1.8,2.1c3.4,4.8,7.9,8.5,12.7,11.9c2.1,1.5,4.3,2.8,7,1.6c0.9-0.4,1.9-0.3,2.6,0.6c2.5,3.6,5.7,6.8,6.6,11.4
		c2.2,11.7,1.3,22.9-5.1,33.3c-3.2,5.3-6.6,10.4-10,15.5c-4,6-7,12.3-8.9,19.2c-0.6,2.1-1.2,4.2-0.8,6.5c1.6,9.8,5.9,18.2,13.6,24.7
		c2.8,2.3,5.5,4.7,8.2,7.1c2.4,2.1,4.3,4.6,5.4,7.7c2.1,5.8,2.2,5.9,6.5,1.7c1.3-1.3,2.1-1,3,0.3c0.9,1.3,1.1,2.5-0.2,3.8
		c-1.1,1.1-2.3,2.3-2.9,3.7c-2,4.2-5.3,5.4-9.7,5.3c-4.7-0.1-9.5-0.4-14.2,0.3c-3.9,0.5-7.4,1.3-10.4-2c-0.5-0.5-1.4-0.7-2.1-1
		c-3.3-1.2-4.4-0.8-6,2.5c-1.1,2.1-1.7,4.4-2.1,6.8c-0.2,1.3-0.6,2.9-2.1,2.7c-4.2-0.3-8.2,2.8-12.7,0c-2.9-1.8-5.4-0.6-6.8,2.2
		c-2.1,4.3-3.9,8.7-2.2,13.6c0.8,2.2,0.8,4.3-0.2,6.4c-1.8,4-1.4,7.9-0.1,12c1.2,3.6,2.6,7.1,5.4,9.8c1.9,1.8,2.8,4.2,1.9,6.9
		c-3,9.3-0.8,17.8,4.6,25.5c3.2,4.5,8.1,6.9,12.9,9.3c2.4,1.2,4.7,2.3,7.6,0.9c2.1-1,5.1,0.6,5,2.8c-0.1,4.5,2.9,6.9,5.8,9.2
		c6.3,5,13.1,8.7,21.7,7.2c4.4-0.8,8.1,1,11,4.1c2.5,2.7,5.5,3.5,9,3.2c1.7-0.2,3.4-0.7,5.1-1c4-0.8,8-2.3,12-2.1
		c3.8,0.1,6.8-0.9,9.8-2.5c1.4-0.8,2.8-2.8,4.6-1.6c1.8,1.2,0.8,3.5,1,5.3c0,0.5,0,1-0.1,1.4c-1.3,10.4-0.8,20.8-0.4,31.2
		c0.1,3.9-0.1,7.6-1.5,11.1c-7.5,18.2-9.9,37.4-11,56.8c-0.2,2.8,0,5.7,0.3,8.5c1,12.1,2.8,24.1,2.4,36.3c-0.1,3.5-0.2,7,0.8,10.3
		c2.3,7.9,4,15.9,5.5,23.9c0.7,3.5,2.8,5.6,6,6.7c6.5,2.2,13.3,3,20.1,1.6c9.1-1.9,12.1-5,13.1-14.2c0.3-2.9,0.8-5.5,2.4-8
		c1.7-2.7,1.8-5.7,0.9-8.7c-0.8-2.9-1.8-5.7-3.4-8.3c-1.4-2.3-2.9-4.5-3.1-7.3c-0.1-0.7-0.4-1.5-0.9-2.1c-4.7-5.4-4.7-11.9-3.8-18.3
		c0.7-5.5,2.2-10.8,3.6-16.2c4-15.1,10.1-29.5,15.8-44.1c3.4-8.7,7.9-16.8,9.7-26.1c1-5.3,2.4-10.4,3.6-15.7
		c0.4-2.1,1.2-3.6,3.7-3.1c2,0.4,3.4-0.6,4-2.5c0.9-2.5,2.7-2.4,4.6-1.7c2.2,0.8,4.3,1.9,6.5,2.9c4.1,2,8.1,3.5,12.7,1.5
		c1.9-0.8,3,0.1,3.4,2c0.3,1.5,0.6,3.1,1,4.6c1.9,7,2.8,14.3,5.5,21c3.5,9,7.3,17.8,10.9,26.7c6.4,16,12.2,32.2,15.3,49.2
		c1.3,6.9,1.3,13.8-3.7,19.7c-0.3,0.3-0.7,0.8-0.7,1.2c-0.3,4-2.8,6.9-4.5,10.3c-2.7,5.6-4.3,11.3-0.1,17c0.9,1.2,0.9,2.7,1.1,4.1
		c0.3,2.2,0.7,4.3,1.1,6.5c0.6,3.6,2.7,5.8,6,7.4c7.7,3.7,15.6,3.1,23.6,1.3c4.9-1.1,8-3.7,9.1-9c1-5.1,1.2-10.3,3.1-15.3
		c2.2-5.7,2.9-11.6,2.8-17.7c-0.1-4.6,0-9.2,0.3-13.7c0.8-13,3-25.9,1.8-39.1c-1.4-16.5-4.1-32.5-10.2-47.9
		c-1.3-3.3-2.1-6.7-1.8-10.2c0.5-6.5,0.4-12.9,0.3-19.4c0-4.3-0.3-8.6,4.1-11.3c0.5-0.3,0.7-1,1.1-1.6c1.9-2.7,2-2.8,4.8-1
		c3.7,2.3,7.3,4.3,12,3.2c0.8-0.2,1.8,0.2,2.8,0.4c3.7,0.8,7.3,1.8,11.1,2.5c4.4,0.9,8.4,0.6,11.8-3c3.2-3.5,7.3-4.8,12.1-3.9
		c1.9,0.3,3.7,0.4,5.6,0c7.6-1.5,13.7-5.4,18.8-11.1c1.1-1.2,1.6-2.6,1.8-4.2c0.4-3.7,2.3-4.9,5.8-3.7c1.8,0.6,3.3,0.6,5-0.2
		c4.3-2,8.5-4.2,12.2-7.2c6.7-5.6,10.7-19.2,7.7-27.3c-1.2-3.3-0.6-5.9,1.7-8.2c2.4-2.4,4-5.3,4.9-8.5c0.7-2.9,2.2-4.5,5.5-4.8
		c6.2-0.6,10.3-4.4,12.7-10.1c2.1-5,2.4-10.1,1.2-15.3c-0.3-1.5-1.4-3.2,0-5.4c7.2,4.6,14.6,8.3,22.2,11.8
		c7.6,3.6,15.3,6.8,23.7,10.5c-2.2,1.3-3.6,2-4.9,2.9c-1.3,0.9-2.6,1.8-3.7,2.9c-2.4,2.5-3.3,5.3-1.9,8.7c1.2,2.8,6.3,6.5,8.9,6.3
		c1.5-0.1,2.2-1.2,1.3-2.6c-0.8-1.4-1.8-2.6-2.2-4.1c-1.2-4,0.9-7.7,5.4-9.8c4.2-2,7.4-1.1,9.7,2.9c2.3,4.2,3.8,8.7,3.8,13.5
		c0,3.6-0.4,6.8-3.1,9.6c-1.8,1.9-1.5,3,0.7,4.6c3.4,2.5,7.4,2.5,11.4,2.3c6.4-0.4,9.9-5.2,8.7-11.4c-0.7-3.5-2.6-6.4-4.7-9.2
		c-3.1-4.3-7.1-7.5-10.9-11.1c-6.1-5.7-4.6-5,1.6-7.4c10.9-4.4,21-10.2,29.6-18.4c12.4-11.8,19.8-26.4,22.5-43.3
		c0.5-3.1,1.5-5,4.7-5.5c0.8-0.1,1.5-0.4,2.3-0.7c10.4-4,18.2-10.8,21.8-21.5C1722.5,98.4,1717.2,85.3,1707.2,75.9z M1055.9,31.1
		c-2.5-4.2-3.6-8.8-2.3-13.6c1.5-5.5,4.3-10.4,8-14.9c-1.2,14.4,0,28.3,6.3,42.3c-2.6-1.2-3.6-3-4.9-4.4
		C1060.4,37.5,1057.9,34.5,1055.9,31.1z M1067.1,212.7c-4.5-10-8.4-19.7-6-30c2.5-11.3,10.2-19.1,19.9-25.2
		C1085,167.4,1078.1,197.4,1067.1,212.7z M1116.3,69.9c-2.4,2.7-4.9,5.3-8,7.3c-2.7,1.7-3.5,1.6-5.8-0.5c-2.2-2-3.4-4.5-4.2-7.3
		c-0.9-3.3-1.8-6.7-2.3-10.1c-0.4-2.8-0.4-5.6-0.6-8.5c-0.1-8.7,1.8-16.9,5.3-24.8c1.7-3.9,2.2-4,6.1-2.1c5.8,2.9,11.7,5.5,17.7,7.8
		c2.9,1.1,4,2.9,4.2,6C1129.3,50.3,1124.6,60.8,1116.3,69.9z M1161.6,142.2c-0.3,5-2.2,10-6,16.2c1.4-12.2-1.3-22.7-7-32.5
		c-1.5-2.6-1.6-4.4,0.4-6.7c3.6-4.3,6.8-9,9-14.2c1.3,0.6,1.2,1.6,1.4,2.5C1161.7,119,1162.2,130.6,1161.6,142.2z M1229.6,144.8
		c-1.3-2.7-0.4-5.3-0.4-7.8c0-0.9,0.9-1.5,1.7-1.1c2.7,1.3,5.6,1.5,8.5,3.3C1236.3,141,1233.1,142.8,1229.6,144.8z M1310,103.1
		c-0.3,3.8-1.7,6.9-5.4,8.7c-1.8,0.9-3.3,2.4-4.9,3.7c-1.4,1.2-2.7,2-4.7,1.6c-2.8-0.6-4.7,0.8-5.7,3.1c-2,4.3-5.2,6.3-9.7,7.3
		c-6,1.4-11.6,4-17.1,6.8c-1.7,0.9-3.3,1.8-5.3,2c-3.5,0.4-4.2,0-5.7-3.2c-1.9-4.3-3.8-4.7-6.9-1.4c-4.2,4.5-4.3,3.3-7.2-0.8
		c-2.3-3.3-3.4-7.1-3.6-11.1c-0.2-2.4,0-4.7,0-7.3c-0.7-7.6,1.1-14.9,3.8-22c2.9-7.7,5-15.6,5.7-23.8c0.1-0.8,0.1-1.6,0.4-2.3
		c0.8-1.9,2.5-1.7,4-1.4c1.4,0.3,1.4,1.5,1.2,2.7c-0.5,2.5-0.9,5-1.2,7.5c-1.4,11.3,1.4,21.6,6.9,31.2c2.9,5.1,6.4,9.7,10.4,14
		c4,4.3,8.5,5.3,14.1,3.3c11.1-4.1,20.3-10.7,27.3-20.2c0.8-1,1.2-3.2,2.9-2.3C1310.8,99.9,1310.1,101.7,1310,103.1z M1449.5,106.7
		c-0.6,0.9-1.2,1.8-1.8,2.8c-0.8,1.3-0.7,2.6,0.8,3.1c2.7,0.9,2.2,2.5,1.3,4.4c-3.5,7.3-3.5,6.4-9,2.7c-3.8-2.5-7.9-4.4-11.6-7.2
		c-3.6-2.7-6.3-6.1-9.5-9.2c-1.7-1.7-1.5-3.7,0-5.5c1.2-1.5,2.3-3,3.4-4.5c2.7-3.9,2.5-7.7-0.4-11.3c-0.3-0.4-0.6-0.7-0.9-1.1
		c-1.4-1.7-3.8-2.8-4.3-4.9c-0.5-2.2,2.2-3.2,2.9-5.2c0.4-1.2,1-2.3,1.2-3.6c0.6-2.9-0.4-4.5-3.3-5.3c-1.3-0.4-2.8-0.5-4.2-0.5
		c-3.5-0.3-5.8-2.3-6.1-5.8c-0.2-2.7-0.2-5.4,0.3-8c0.4-1.9,0.5-3.7,0.3-5.6c-0.5-7.2-3.7-12.5-10.6-15.4
		c-5.1-2.1-10.1-4.5-15.1-6.7c-2.2-0.9-3.5-2-2.4-4.6c0.7-1.7,0.1-3.1-1.4-4.1c-1.7-1.1-1.4-2.3-0.8-4c1.1-3.7,3.4-5.1,7-6
		c12-2.7,23.6-6.7,34.9-11.8c4.6-2.1,8.9-4.7,13.2-7.3c4.2-2.6,4.7-2.6,8.2,0.6c1.9,1.7,4,3.1,6.3,4.1c2.4,1,2.8,2.5,2.1,4.9
		c-2.7,9.1-4.6,18.4-5.8,27.8c-1.2,9.5-2.1,19.1-1.1,28.7c0.3,2.7-0.4,4.1-3,4.9c-5.2,1.7-9.5,4.9-13.2,8.9c-1.8,1.9-2.8,4.2-3,6.8
		c-0.4,5.5,4.3,9.2,9.6,7.7c2.9-0.8,5.3-2.8,7.9-4.2c4.3-2.3,5.2-1.9,6.8,2.7c1.7,4.9,3.7,9.8,4.4,15c0.2,1.6,0.4,3.1,0.5,4.3
		C1453.1,99,1451.8,103,1449.5,106.7z M1532.5,88.4c0.2-0.8,0.4-1.5,0.7-2.2c2.9,5.5,6.5,10.2,10.1,14.7c1.5,1.9,1.5,3.5,0.3,5.5
		c-6,9.9-8.7,20.7-7.4,33c-3.5-5.2-5.5-10.3-5.8-15.9C1529.5,111.7,1530.2,100,1532.5,88.4z M1496.4,127c-1,8.2-3.6,16-7.4,23.3
		c-1.2,2.3-3.2,3-5.6,1.5c-6-3.7-12.7-6.5-16.8-12.6c-1.5-2.2-3.4-4.1-6.4-6.1c5.8-1.3,10.4-3.1,14.6-6c0.4-0.3,1-0.8,1.2-0.6
		c2.8,1.8,5-0.8,7.4-0.7c3.8,0.1,7.5,0.3,11.2-0.7C1495.9,124.7,1496.5,125.6,1496.4,127z M1502.2,41.7c-4.7,3.1-10.1,5-13.2,10.3
		c-1.6,2.7-3.5,5.2-2.8,9.3c-4.4-2.3-8.1-4.3-11.8-6.2c-1.2-0.6-1.8-1.8-1.9-3.1c-1.1-8.7-2.9-17.4-1.1-26.3c0.3-1.4,0.4-2.8,1.3-4
		c3.2-4.5,6.4-9,9.6-13.5c1.1-1.6,2.6-1.8,4.1-0.9c3.1,1.9,5.7,1,8.2-1.1c3.2-2.6,6.3-5.2,9.4-7.9c0.7-0.6,1.3-1.4,2-2
		c0.5-0.4,1.1-0.6,1.8-0.3c0.9,0.4,0.9,1.3,0.6,2c-1.5,3.6-0.8,7.1,0.2,10.6c0.4,1.3,1,2.7,1.7,3.9c2.3,3.8,3.7,4.1,7.4,1.7
		c2.5-1.6,5.4-1.8,8.1-2.2c2.2-0.3,2.1,1.8,2,3.4c-0.5,7.7-0.9,15.4-1.7,23.1c-1.2,11.3-2.7,22.5-5,34.5c-1.4-5.1-3.6-8.9-4.8-13.2
		c-1.8-6.5-5.8-11.8-9.6-17.3C1505.5,40.9,1503.8,40.6,1502.2,41.7z M1554.1,202.5c-0.3,0.4-0.7,0.6-1.3,1.2c-2-1.5-1.9-3.5-1.1-5.4
		c1.8-4.5,0.4-8.7-1.2-12.8c-1.7-4.2-4.3-5.8-8.1-3.7c-4.4,2.5-8.2-0.6-12.2-0.1c-1.1,0.1-1.1-1.3-1.3-2.2c-0.4-3-0.7-6-2.2-8.7
		c-1.2-2.2-2.4-4.1-5.5-3c-1.7,0.6-2.3-0.4-2.4-1.9c-0.1-1.7-0.1-3.5-0.1-5.2c-0.1-4.3-1.5-7.6-6.3-8.7c-2.9-0.7-3.1-1.3-2.1-4
		c3.9-9.8,5.8-19.9,5.6-30.5c0-0.7-0.2-1.6,1.1-2.2c0.7,2.9,1.2,5.8,2,8.6c2,7,5.8,13,10.9,18c6.7,6.5,12.9,13.4,18.3,21
		c0.7,1,1.6,1.9,2.5,2.8C1560.7,175.7,1562,190.8,1554.1,202.5z M1593.9,49.2c-0.8,2.7-1.7,5.4-3.6,7.6c-2.8,3.3-4.2,3.6-7.5,0.9
		c-4.7-3.7-9.1-7.8-12.3-13c-4.8-7.9-8.4-16.3-7.3-25c-0.1-7.2,0.7-13.4,2.1-19.5c0.7-3,2.3-5.1,5.1-6.4c2-0.9,3.8-2.2,5.8-3.3
		c3.6-1.9,4.2-1.8,6.7,1.4c4.3,5.4,7.3,11.4,9.6,17.8C1597,22.7,1597.8,35.9,1593.9,49.2z M1630.7,175.7c-1.2,6-3,11.8-5.8,17.4
		c-8.4-6.8-17.3-39.4-14.7-54.6c7.3,3.5,12,9.1,16.3,15.2C1631.1,160.4,1632.2,167.8,1630.7,175.7z M1624.7,25.6
		c5.5-13.5,7-27.4,5.6-41.8c3.8,4.4,6.3,9.2,7.9,14.5c1.3,4.3,0.6,8.5-1.4,12.4C1633.9,16.3,1629.5,21,1624.7,25.6z" />
		<g class="st2">
			<path class="st3" d="M1819.8-485.3v1028h-1860v-1028H1819.8 M1828.8-494.3h-1878v1046h1878V-494.3L1828.8-494.3z" />
		</g>
		<g>
			<g>
				<path class="st4" d="M62.2,0.1c-2.7,0-4.5,1.7-4.5,3.6V31L10.2,1.8C8.6,0.8,7,0.1,4.4,0.1C1.8,0.1,0,1.8,0,3.7v79.9
				c0,1.9,1.8,3.6,4.4,3.6s4.4-1.7,4.4-3.6V14.1c0-1.2,0.5-1.8,1.3-1.8c0.4,0,0.8,0.1,1.3,0.4l46.3,28.6v42.3c0,1.9,1.8,3.6,4.5,3.6
				c2.6,0,4.4-1.7,4.4-3.6V3.7C66.6,1.8,64.8,0.1,62.2,0.1z" />
			</g>
			<g>
				<path class="st4" d="M125.5,0.8h-23.4c-12,0-21.8,8.7-21.8,21.4v42.5c0,12,9.2,21.5,21.9,21.5h23.2c12.6,0,21.9-9.5,21.9-21.5
				V22.2C147.3,9.5,137.3,0.8,125.5,0.8z M138.4,64.2c0,7.2-5.6,13.1-13.5,13.1h-22.1c-8,0-13.5-5.9-13.5-13.1V22.9
				c0-8.1,6.1-13.1,13.4-13.1H125c7.4,0,13.4,5,13.4,13.1L138.4,64.2L138.4,64.2z" />
			</g>
			<g>
				<path class="st4" d="M237.6,0.7c-3.3,0-4.3,1.3-4.3,3.8v59.7c0,6.9-4.6,13.1-12.4,13.1h-2.7c-6.9,0-12.7-5.5-12.7-13.2V3.3
				c0-1.8-1.6-3.3-4-3.3c-2.5,0-4.1,1.5-4.1,3.3v60.9c0,7.7-5.8,13.2-12.7,13.2H182c-7.7,0-12.3-6.1-12.3-13.1V4.5
				c0-2.5-1.2-3.8-4.4-3.8S161,2,161,4.5v60.7c0,11.7,8.1,21,20.5,21h3.3c6.9,0,12.9-3.4,16.7-8.6c3.8,5.3,9.9,8.6,16.7,8.6h3.4
				c12.4,0,20.6-9.5,20.6-21V4.5C242,2,240.9,0.7,237.6,0.7z" />
			</g>
			<g>
				<path class="st4" d="M352.1,77.3H315c-8.2,0-13.7-5.8-13.7-13.1V4.7c0-2.5-1.1-3.9-4.5-3.9c-3.4,0-4.4,1.4-4.4,3.9v60.4
				c0,12,8.9,21.1,21.6,21.1h38c2.5,0,3.9-1,3.9-4.4S354.6,77.3,352.1,77.3z" />
			</g>
			<g>
				<path class="st4" d="M409.8,0.8h-23.4c-12,0-21.8,8.7-21.8,21.4v42.5c0,12,9.2,21.5,21.9,21.5h23.2c12.6,0,21.9-9.5,21.9-21.5
				V22.2C431.6,9.5,421.7,0.8,409.8,0.8z M422.7,64.2c0,7.2-5.6,13.1-13.5,13.1H387c-8,0-13.5-5.9-13.5-13.1V22.9
				c0-8.1,6.1-13.1,13.4-13.1h22.4c7.4,0,13.4,5,13.4,13.1L422.7,64.2L422.7,64.2z" />
			</g>
			<g>
				<path class="st4" d="M487.9,0.8H467c-12,0-21.7,9.5-21.7,22.3v59.4c0,2.5,1,3.8,4.4,3.8c3.3,0,4.4-1.3,4.4-3.8V54.7h46.6v27.8
				c0,2.5,1,3.8,4.4,3.8c3.3,0,4.4-1.3,4.4-3.8V23C509.6,10.9,500.6,0.8,487.9,0.8z M500.7,46.1h-46.6V23.6c0-8.1,6.1-14,13.4-14
				h19.8c8.2,0,13.3,6.5,13.3,13.9L500.7,46.1L500.7,46.1z" />
			</g>
			<g>
				<path class="st4" d="M570.1,0.8h-37c-4.4,0-7.9,3.5-7.9,7.9v69.6c0,4.4,3.5,7.9,7.9,7.9H570c12.7,0,21.8-9.5,21.8-21.4V22.1
				C591.9,9.4,582.1,0.8,570.1,0.8z M583.1,64c0,7.5-5.6,13.2-13.5,13.2h-32.4c-1.7,0-2.9-1.3-2.9-2.9V12.7c0-1.7,1.3-2.9,2.9-2.9
				h32.4c7.5,0,13.5,5,13.5,13.1V64z" />
			</g>
			<g>
				<path class="st4" d="M611.8,0.9c-3.5,0-4.6,1.4-4.6,4.1v77.3c0,2.7,1.2,4,4.6,4s4.6-1.3,4.6-4V5C616.4,2.3,615.3,0.9,611.8,0.9z" />
			</g>
			<g>
				<path class="st4" d="M695,0.1c-2.7,0-4.5,1.7-4.5,3.6V31L643,1.8c-1.6-0.9-3.2-1.7-5.8-1.7s-4.4,1.7-4.4,3.6v79.9
				c0,1.9,1.8,3.6,4.4,3.6c2.6,0,4.4-1.7,4.4-3.6V14.1c0-1.2,0.5-1.8,1.3-1.8c0.4,0,0.8,0.1,1.3,0.4l46.3,28.6v42.3
				c0,1.9,1.8,3.6,4.5,3.6c2.6,0,4.4-1.7,4.4-3.6V3.7C699.4,1.8,697.6,0.1,695,0.1z" />
			</g>
			<g>
				<path class="st4" d="M775.4,38.8h-31.7c-1.8,0-3.4,1.7-3.4,4.2c0,2.6,1.6,4.3,3.4,4.3h27.8c1.7,0,2.9,1.3,2.9,2.9v24
				c0,1.7-1.3,2.9-2.9,2.9h-35.6c-8.1,0-13.9-6.2-13.9-13.5V23.1c0-8.2,6.4-13.4,13.8-13.4h42.6c2.5,0,3.9-1,3.9-4.4
				c0-3.3-1.4-4.4-3.9-4.4h-43c-12.1,0-22.4,8.9-22.4,21.8v41.6c0,12.3,9.7,22,22.5,22h39.9c4.4,0,7.9-3.5,7.9-7.9V46.7
				C783.3,42.3,779.8,38.8,775.4,38.8z" />
			</g>
			<g>
				<path class="st4" d="M818.3,74.1l-6.7-1l-3-6.1c-0.7-1.3-2.6-1.3-3.2,0l-3,6.1l-6.7,1c-1.5,0.2-2.1,2-1,3.1l4.9,4.7l-1.2,6.7
				c-0.3,1.5,1.3,2.6,2.6,1.9l6-3.2l6,3.2c1.3,0.7,2.9-0.4,2.6-1.9l-0.9-5.5c0.3-0.6,0.4-1.2,0.5-1.9l4.2-4
				C820.4,76.1,819.8,74.3,818.3,74.1z" />
			</g>
			<g>
				<path class="st4" d="M853.3,74.1l-6.7-1l-3-6.1c-0.7-1.3-2.6-1.3-3.2,0l-3,6.1l-6.7,1c-1.5,0.2-2.1,2-1,3.1l4.9,4.7l-1.2,6.7
				c-0.3,1.5,1.3,2.6,2.6,1.9l6-3.2l6,3.2c1.3,0.7,2.9-0.4,2.6-1.9l-0.8-4.9c0.5-0.8,0.7-1.8,0.8-2.9l3.7-3.6
				C855.4,76.1,854.8,74.3,853.3,74.1z" />
			</g>
			<g>
				<path class="st4" d="M889.3,77.1c1.1-1,0.5-2.9-1-3.1l-6.7-1l-3-6.1c-0.7-1.3-2.6-1.3-3.2,0l-3,6.1l-6.7,1c-1.5,0.2-2.1,2-1,3.1
				l4.9,4.7l-1.2,6.7c-0.3,1.5,1.3,2.6,2.6,1.9l6-3.2l6,3.2c1.3,0.7,2.9-0.4,2.6-1.9l-0.8-4.4c0.7-1,1.1-2.2,1.2-3.7L889.3,77.1z" />
			</g>
		</g>
	</g>
	<g class="st2">
		<g class="st5">
			<path class="st4" d="M835.6-116.9v291.1H-1.9v-291.1L835.6-116.9 M840.6-121.9H-6.9v301.1h847.5V-121.9L840.6-121.9z" />
		</g>
		<g class="st5">
			<g>
				<path class="st4" d="M75-67.3H60V-52c5.6-0.6,9.2-1.7,12.5-3.2c0.3-0.1,0.6-0.1,1-0.1c1.9,0,4.1,1.5,4.1,4.1c0,1.5-0.8,3.3-2.3,4
				c-8.8,3.4-19.3,4.7-44.5,4.8c-1.8,0-3.6-1.7-3.6-4.3s1.8-4.3,3.6-4.3h1.7v-15.4c0-1.7,1.6-3.5,4.1-3.5s4.1,1.8,4.1,3.5v15.4
				c4-0.1,7.4-0.2,10.4-0.3v-29.9c0-1.8,1.8-3.9,4.5-3.9c2.7,0,4.5,2,4.5,3.9v5.7h15c1.7,0,3.5,1.7,3.5,4.1
				C78.5-69,76.7-67.3,75-67.3z M117.6-6c-1.3,0-2.7-0.5-3.3-1.6l-2.4-4.1C105.5-8.7,95.8-7,84-7h-3.3v17.1c0,1.9-1.9,4.1-4.8,4.1
				c-2.9,0-4.9-2.1-4.9-4.1V-7H34.4C32.9-7,31-8.6,31-11c0-2.4,1.9-4,3.4-4h18.3l9.7-8.2h-15c-3.2,0-5.3-2.6-5.3-5.4
				c0-1.8,1.2-3.9,2.5-4.9L55-41.6c0.8-0.6,1.6-1,2.5-1c2.3,0,3.9,1.7,3.9,3.3c0,0.6-0.3,1.4-0.9,1.9l-7.4,5.7
				c-0.3,0.3-0.5,0.8-0.5,1.1c0,0.5,0.3,1,1.1,1h16.5l8.7-7.4c0.6-0.8,1.6-0.8,2-0.8c2.8,0,4.2,2.1,4.2,4.1c0,1-0.3,1.8-1,2.4
				L65.1-15H84c8.6,0,17.1-1.4,23.6-3.8l-4.8-8c-0.2-0.4-0.4-0.9-0.4-1.3c0-1.9,1.9-3.9,4.5-3.9c1,0,2.4,0.3,3.1,1.5l11.6,18.8
				c0.3,0.4,0.4,1,0.4,1.5C122-8.1,120.2-6,117.6-6z M45.4,10.4c-1.9,0-5.1-1.2-5.1-3.5c0-1.8,1.1-5,3.4-5c1.9,0,5,1.2,5,3.4
				C48.7,7.1,47.7,10.4,45.4,10.4z M118.7-70.6l-25.1,6.2v8.9c0,2.3,1.8,4.1,4.1,4.1h16.7c1.8,0,3.8,1.8,3.8,4.4
				c0,2.7-1.9,4.5-3.8,4.5H96.2c-7,0-11.9-4.9-11.9-12.1v-26.5c0-1.8,1.8-3.9,4.6-3.9c2.7,0,4.6,2,4.6,3.9v8l23.6-5.7
				c0.2,0,0.4-0.1,0.6-0.1c1.7,0,3.8,1.6,3.8,4.2C121.6-72.5,120.1-71,118.7-70.6z M107.1,8.1c-2,0-3.6-3.4-3.6-5.1
				c0-2,3.2-3.6,5-3.6c2,0,3.6,3.4,3.6,5.1C112.1,6.2,108.7,8.1,107.1,8.1z" />
			</g>
			<g>
				<path class="st4" d="M157.2,9.7h-10.9c-4.5,0-8-3.5-8-7.9V-74c0-4.5,3.5-8,8-8h10.9c4.5,0,8,3.5,8,8V1.8
				C165.2,6.2,161.7,9.7,157.2,9.7z M157.5-70.6c0-1.4-1.1-2.6-2.6-2.6h-6.4c-1.5,0-2.6,1.2-2.6,2.6v69.1c0,1.4,1.1,2.6,2.6,2.6h6.4
				c1.5,0,2.6-1.2,2.6-2.6V-70.6z M229.3-60.7h-24.2v23.2h17.5c1.8,0,4,1.8,4,4.7c0,2.8-2.1,4.6-4,4.6h-17.7
				c2,10.5,9.4,22,19.6,27.9c1.5,0.9,2.1,2.1,2.1,3.7c0,3-2.5,4.9-4.7,4.9c-0.5,0-1.1-0.2-1.5-0.4c-8.8-5-15.5-13.5-19.7-22.7
				c-4.3,8.9-11.4,17.3-20.1,22.4c-0.4,0.3-1.1,0.4-1.6,0.4c-2.1,0-4.5-1.8-4.5-4.6c0-1.6,0.6-3.2,2.1-4.1
				c9.9-5.9,16.9-17.3,18.6-27.6h-17.1c-1.8,0-4-1.8-4-4.6c0-2.9,2.1-4.7,4-4.7h17.5v-23.2h-24.2c-1.8,0-3.9-1.9-3.9-4.7
				c0-2.7,2-4.6,3.9-4.6h57.9c1.8,0,3.9,1.9,3.9,4.6C233.2-62.6,231.2-60.7,229.3-60.7z M182.5-72.8c-2.1,0-3.3-2.9-3.3-4.8
				c0-2.4,3-3.4,5-3.4c2.1,0,3.3,3.1,3.3,4.9C187.5-73.9,184.4-72.8,182.5-72.8z M218-72.8c-1.9,0-5-1.1-5-3.3c0-1.9,1.1-5,3.3-5
				c2,0,5,1.2,5,3.5C221.3-75.8,220-72.8,218-72.8z" />
			</g>
			<g>
				<path class="st4" d="M278.8-65.3c-0.2,0-0.3-0.1-0.5-0.1l-24.2-4.9c-1.6-0.3-2.8-1.7-2.8-4c0-3.1,2.1-4.6,3.9-4.6
				c0.2,0,0.4,0,0.5,0l24.1,4.8c1.7,0.3,2.8,2,2.8,4C282.5-67.3,280.7-65.3,278.8-65.3z M278.7-34.6L254-39.5
				c-1.5-0.3-2.7-1.6-2.7-4c0-3.2,2.1-4.6,3.9-4.6c0.2,0,0.3,0,0.5,0l24.1,4.9c1.7,0.3,2.8,1.8,2.8,4
				C282.5-36.5,280.4-34.6,278.7-34.6z M333.5-26.2C316.5-1,290.1,10.9,267.1,11c-3.1,0-4.5-3.3-4.5-5.3c0-2.5,1.8-4.2,3.5-4.3
				c26.4-1.5,47-15.5,59.3-33.1c0.6-1,1.9-1.5,3.2-1.5c2.7,0,5.3,2.6,5.3,5.1C334-27.4,333.9-26.7,333.5-26.2z" />
			</g>
			<g>
				<path class="st4" d="M436.1-52.8h-13.6v60c0,2.2-2.3,4.3-5.6,4.3c-3.4,0-5.7-2.2-5.7-4.3v-42.9c-19.8,15.1-26.9,22.1-51.9,36
				c-0.6,0.4-1.4,0.6-2.1,0.6c-2.4,0-4.6-2.4-4.6-5.8c0-2,0.9-3.4,2-4c25-13.6,37.3-24.4,56.7-39.7v-4.3h-44.1
				c-2.3,0-4.6-2.2-4.6-5.5c0-3.2,2.4-5.4,4.6-5.4h44.1v-12.9c0-2.2,2.3-4.4,5.6-4.4c3.4,0,5.7,2.3,5.7,4.4v12.9h13.6
				c2.1,0,4.5,2.2,4.5,5.4C440.6-54.9,438.2-52.8,436.1-52.8z" />
			</g>
			<g>
				<path class="st4" d="M493.6-59.1l-24.3-4.4c-1.7-0.3-3.2-2-3.2-4.3c0-2.4,1.7-5.4,4.2-5.4l24.6,4.3c1.6,0.3,3.2,2,3.2,4.5
				C498.1-60.9,495.5-59.1,493.6-59.1z M546-25.7c-13.3,21.5-40.3,37.3-65.7,37.3c-2.6,0-4.6-2.6-4.6-5.6c0-2.5,1.9-4.2,3.8-4.3
				C508.7,0.4,529.3-18.2,538-31c0.6-1,2.1-1.7,3.6-1.7c2.7,0,4.9,2.4,4.9,5C546.6-27,546.4-26.2,546-25.7z" />
			</g>
		</g>
		<g class="st5">
			<path class="st4" d="M79.4,139.7H60.2c-21.8,0-31-9.8-31-23.7v-1.4c0-1.8,2-3.3,4.7-3.3c2.6,0,4.6,1.5,4.6,3.3v1.4
			c0,9.2,7.8,14.5,21.7,14.5h19.2c17.2,0,23.1-6.1,23.1-13.5v-4.4c0-7.9-5.8-14-25-14H62.2c-1.6,0-3.3-1.6-3.3-4c0-2.3,1.7-4,3.3-4
			h15.7c14.8,0,19.6-5.3,19.6-12.3V74c0-8.9-7.8-12.2-22.4-12.2H51.3c-1.8,0-3.8-1.8-3.8-4.7c0-2.7,2-4.6,3.8-4.6h24
			c19.7,0,31.8,6,31.8,21.3v4.7c0,7.1-2.6,12.7-11,15.7c12.3,3.5,16.1,10.8,16.1,18.3v5C112.1,131.8,101.3,139.7,79.4,139.7z" />
		</g>
		<g class="st5">
			<path class="st4" d="M211.4,142.8h-3c-1.7,0-3.3-1.7-3.3-4.4c0-2.6,1.3-4.2,3-4.2h1.2c3.2,0,4.6-2.1,4.6-5.2V59.5
			c0-1.5-1.1-2.6-2.6-2.6h-64.2c-1.5,0-2.6,1.1-2.6,2.6v41.6c0,8.8-0.4,19.3-5.1,27c-0.6,1.2-1.8,1.8-3.8,1.8
			c-2.9,0-4.7-2.3-4.7-4.5c0-0.3,0.1-0.8,0.2-1.2c3.9-6.5,4.1-13.5,4.1-24V56.2c0-4.5,3.5-8,8-8h72.1c4.5,0,8,3.5,8,8v73.6
			C223.4,138.1,219.9,142.8,211.4,142.8z M193,96.7h-27.6c-1.6,0-3.4-1.6-3.4-4.1c0-2.3,1.8-3.8,3.4-3.8h9.6V77.1h-9.6
			c-1.6,0-3.4-1.6-3.4-4.1c0-2.3,1.8-4,3.4-4h9.6v-6.8c0-1.8,1.7-3.6,4.4-3.6s4.5,1.8,4.5,3.6V69h9c1.6,0,3.4,1.6,3.4,4
			c0,2.5-1.8,4.1-3.4,4.1h-9v11.7h9.1c1.5,0,3.3,1.6,3.3,3.8C196.3,95.1,194.5,96.7,193,96.7z" />
		</g>
		<g class="st5">
			<path class="st4" d="M322.6,123.9h-26v16.7c0,1.9-2,4.1-4.9,4.1s-4.8-2.1-4.8-4.1v-16.7h-47.7c-1.8,0-3.8-1.7-3.8-4.5
			c0-2.5,1.9-4.4,3.8-4.4h6.2V89.8c0-4.5,3.5-8,8-8h33.5V63.3h-29.6c-1.6,4.1-3.8,7.7-5.9,10.7c-0.9,1.2-2.1,2-3.9,2
			c-3.4,0-5.1-2.5-5.1-4.6c0-0.6,0.2-1.3,0.5-1.8c4.1-5.8,7.2-12.8,8.2-19.9c0.3-2.1,2.1-3.8,4.7-3.8c2.9,0,5.1,2,5.1,3.8
			c0,1.5-0.5,3.4-0.9,4.9h54.7c1.8,0,3.8,1.8,3.8,4.3c0,2.7-1.9,4.4-3.8,4.4h-18.2v18.5h26.1c1.7,0,3.8,1.8,3.8,4.4
			c0,2.7-2,4.4-3.8,4.4h-26.1V115h26c1.8,0,3.9,1.9,3.9,4.4C326.5,122.1,324.4,123.9,322.6,123.9z M286.9,90.6h-29.4
			c-1.5,0-2.6,1.2-2.6,2.8V115h32V90.6z" />
		</g>
		<g class="st5">
			<path class="st4" d="M388.2,71.2h-42.2c-1.7,0-3.5-1.6-3.5-4.1c0-2.6,1.8-4.3,3.5-4.3h42.2c1.7,0,3.5,1.7,3.5,4.3
			C391.8,69.6,389.9,71.2,388.2,71.2z M379.6,141.6h-25.2c-4.5,0-8-3.6-8-8v-17.2c0-4.4,3.5-8,8-8h25.2c4.5,0,8,3.6,8,8v17.2
			C387.6,138,384.1,141.6,379.6,141.6z M378.5,55.4h-22.9c-1.5,0-3.1-1.4-3.1-3.6c0-2,1.6-3.5,3.1-3.5h22.9c1.5,0,3.1,1.5,3.1,3.5
			C381.6,54,380,55.4,378.5,55.4z M378.5,86h-22.9c-1.5,0-3.1-1.5-3.1-3.5c0-2.1,1.6-3.5,3.1-3.5h22.9c1.5,0,3.1,1.4,3.1,3.5
			C381.6,84.5,380,86,378.5,86z M378.6,100.5h-23.1c-1.4,0-3-1.3-3-3.4c0-2.1,1.6-3.4,3-3.4h23.1c1.4,0,2.9,1.3,2.9,3.4
			S380,100.5,378.6,100.5z M379,118.2c0-1.5-1.1-2.7-2.6-2.7h-18.8c-1.4,0-2.6,1.2-2.6,2.7v13.7c0,1.5,1.2,2.7,2.6,2.7h18.8
			c1.5,0,2.6-1.2,2.6-2.7V118.2z M429.4,95.5h-20.8c-1.4,0-2.6,1-2.6,2.6v27.2c0,4.7,2.7,7.4,7.6,7.4h14.1c1.8,0,3.9,1.7,3.9,4.3
			c0,2.7-2,4.7-3.9,4.7h-16c-9.8,0-14.9-5.9-14.9-14.6V94.4c0-4.6,3.5-8.1,8-8.1h20.7c1.5,0,2.7-1.2,2.7-2.5v-24
			c0-1.6-1.2-2.6-2.7-2.6h-16.3c-1.8,0-3.8-1.9-3.8-4.6c0-2.6,1.9-4.5,3.8-4.5h20c4.5,0,8,3.5,8,8v31.3
			C437.5,92,433.9,95.5,429.4,95.5z" />
		</g>
		<g class="st5">
			<path class="st4" d="M645.6,80.2h-12.4v16.6c0,22.5-10.3,39.2-35.7,43.4c-0.2,0-0.3,0-0.5,0c-2,0-4.1-2-4.1-5.2
			c0-1.9,1.5-3.4,3-3.7c20.8-3.5,28.4-15.6,28.4-34.2v-17H579v17c0,1.8-1.8,3.7-4.5,3.7c-2.7,0-4.4-1.9-4.4-3.7v-17h-8.5
			c-1.8,0-3.3-1.8-3.3-4.4c0-2.8,1.5-4.5,3.3-4.5h8.5V59c0-1.8,1.8-3.7,4.4-3.7c2.8,0,4.5,1.9,4.5,3.7v12.2h45.2V58.9
			c0-1.7,1.8-3.5,4.5-3.5c2.7,0,4.4,1.9,4.4,3.5v12.3h12.4c1.8,0,3.7,1.8,3.7,4.5C649.2,78.4,647.4,80.2,645.6,80.2z" />
		</g>
		<g class="st5">
			<path class="st4" d="M733.1,62.4c-5.2,13.2-13,20-24.6,24.6v52.7c0,2-1.9,4.1-4.8,4.1c-3,0-4.9-2-4.9-4.1V90.1
			c-2.7,0.6-5.6,1.4-8.6,2l-21,4.7c-0.2,0.1-0.5,0.1-0.8,0.1c-2.1,0-4.1-1.9-4.1-5.1c0-3,1.8-4.1,3.2-4.4L688,83
			c21.8-4.8,29.5-10.3,35.8-24.3c0.5-1.2,1.7-2.1,4.3-2.1c2.7,0,5.2,2.3,5.2,4.6C733.4,61.6,733.3,62,733.1,62.4z" />
		</g>
		<g class="st5">
			<path class="st4" d="M800.5,103.6c-0.1,0-0.3,0-0.4,0c-12-2.3-22.9-6.4-31.7-10.8v47.6c0,1.9-1.9,4-4.8,4s-4.8-2-4.8-4v-80
			c0-1.9,1.9-4,4.8-4s4.8,2,4.8,4v21.6c8.8,4.8,20.5,9.5,33.2,11.8c1.4,0.2,3.2,2.1,3.2,4.7C804.7,101.8,802.3,103.6,800.5,103.6z" />
		</g>
		<g class="st5">
			<path class="st4" d="M723.3,6.3l-8.6-6.7L704.3,3c-2.3,0.7-4.4-1.5-3.6-3.8l3.7-10.2l-6.3-8.9c-1.4-2,0-4.7,2.5-4.6l10.9,0.4
			l6.5-8.8c1.4-1.9,4.5-1.4,5.1,0.9l3,10.5l10.3,3.4c2.3,0.8,2.7,3.8,0.7,5.2l-9,6.1L728,4.1C728,6.5,725.2,7.8,723.3,6.3z" />
		</g>
		<g class="st5">
			<path class="st4" d="M747.2,26.5l-2.3-5l-5.4-1c-1.2-0.2-1.6-1.7-0.7-2.5l4-3.7l-0.7-5.4c-0.2-1.2,1.1-2.1,2.2-1.5l4.8,2.7
			l4.9-2.4c1.1-0.5,2.3,0.4,2.1,1.6l-1.1,5.4l3.8,4c0.8,0.9,0.3,2.3-0.9,2.5l-5.4,0.6l-2.6,4.8C749.2,27.6,747.7,27.6,747.2,26.5z" />
		</g>
		<g class="st5">
			<g>
				<path class="st4" d="M483.7,68.5c-1.6,0-3.3,1.5-3.3,3.8c0,2.1,1.7,3.8,3.3,3.8h30.9c1.5,0,3.2-1.6,3.2-3.8
				c0-2.3-1.7-3.8-3.2-3.8H483.7z" />
			</g>
			<g>
				<path class="st4" d="M462.2,72.2c0.1,0,0.1,0,0.2,0c11.9-2.5,25.4-9.2,34.9-17.9c0.8-0.8,1.4-1.1,1.9-1.1c0.6,0,1.4,0.4,2,1.1
				c9.3,8.6,22.9,15.4,34.7,17.9h0.1c1.9,0,4.5-1.9,4.5-4.7c0-2.3-1.3-4.1-2.7-4.3c-11-2-22.8-7.8-30.2-14.5
				c-2.5-1.7-4.4-3.4-8.5-3.4c-4,0-6,1.7-8.3,3.4c-7.4,6.6-19.3,12.4-30.3,14.5c-1.5,0.2-2.7,2-2.7,4.4
				C457.9,70.2,460.3,72.2,462.2,72.2z" />
			</g>
			<g>
				<path class="st4" d="M513.2,133.4h-17.7c-4.7,0-7.4-3.1-7.4-7.4v-11.5c0-1.8-1.8-3.8-4.6-3.8c-2.7,0-4.6,2-4.6,3.8v13.1
				c0,8.6,4.7,14,14.3,14h19.9c1.7,0,3.5-1.8,3.5-4.2C516.8,135,515,133.4,513.2,133.4z" />
			</g>
			<g>
				<path class="st4" d="M463.8,115.8c-1.8,0-3.3,1.3-3.6,2.5l-5.3,17.2c-0.1,0.2-0.1,0.5-0.1,0.8c0,2,2.6,3.4,4.3,3.4
				c1.9,0,3.3-1.2,3.8-2.5l5.3-17c0.1-0.3,0.1-0.5,0.1-0.9C468.2,117.2,465.7,115.8,463.8,115.8z" />
			</g>
			<g>
				<path class="st4" d="M541,92.1c0-4.1-3.5-6.4-7.1-6.4h-63c-1.6,0-3.5,1.6-3.5,4.2c0,2.3,1.9,4,3.5,4H528c0.9,0,1.3,0.3,1.3,0.8
				c0,0.3-0.2,0.8-0.6,1.1l-10.7,9.7c-0.6,0.6-1,1.4-1,2.1c0,2,1.9,4.2,4.7,4.2c1,0,1.9-0.3,2.7-1.1l14.5-13.5
				C540.1,95.9,541,94.1,541,92.1z" />
			</g>
			<g>
				<path class="st4" d="M517.7,120.2l-3.3-1.8c0-0.1-0.1-0.3-0.2-0.4l-0.4-3.6c-0.1-0.9-1.2-1.2-1.8-0.6l-2.8,2.7l-3.8-0.8
				c-0.8-0.2-1.5,0.7-1.1,1.5l1.7,3.5l-1.9,3.4c-0.4,0.8,0.2,1.7,1.1,1.5l3.9-0.6l2.7,2.9c0.6,0.6,1.7,0.3,1.8-0.5l0.7-3.9l3.6-1.6
				C518.4,121.7,518.5,120.6,517.7,120.2z" />
			</g>
			<g>
				<path class="st4" d="M541,127.7l-4.4-0.1l-2.5-3.7c-0.5-0.8-1.8-0.7-2.1,0.3l-1.4,4.2l-4.2,1.2c-0.9,0.3-1.2,1.5-0.4,2.1l3.5,2.6
				l-0.2,4.4c0,1,1.1,1.6,1.8,1l3.6-2.5l4.1,1.5c0.9,0.3,1.8-0.5,1.5-1.5l-1.3-4.2l2.7-3.5C542.5,128.9,542,127.7,541,127.7z" />
			</g>
		</g>
		<g class="st5">
			<path class="st4" d="M197.6,118.7c1.6-1.6,0.7-4.3-1.5-4.6l-9.3-1.3c2-1.7,5.1-3.8,8.6-4.8l-3.1-4.4c0,0-4.2,3.9-6.7,8.2l-4.1-8.3
			c-1-2-3.9-2-4.9,0l-4.1,8.4c-2.5-4.4-6.8-8.3-6.8-8.3l-3.1,4.4c3.6,0.9,6.6,3,8.6,4.8l-9.2,1.3c-2.2,0.3-3.1,3-1.5,4.6l7,6.8
			c-4.3,1.5-7.8,4.4-7.8,4.4l3.8,3.7c1.1-2.5,2.6-4.5,3.9-5.9l-1.4,8.1c-0.4,2.2,1.9,3.9,3.9,2.8l7.7-4.1c-0.6,1.7-1.2,3.7-1.3,4.8
			h5.1c0,0-0.5-2.3-1.1-4.7l7.5,4c2,1,4.3-0.6,3.9-2.8l-1.3-7.7c1.2,1.3,2.5,3.2,3.5,5.5l3.8-3.7c0,0-3.4-2.8-7.7-4.2L197.6,118.7z" />
		</g>
		<circle class="st6" cx="179.4" cy="122.7" r="7.2" />
		<g class="st5">
			<path class="st4" d="M661.2-98.1c6.4,13.4,7.6,29.3,1.9,44.3c-11,28.9-43.5,43.5-72.4,32.4c-1.9-0.7-3.7-1.5-5.5-2.4
			c6,12.5,16.6,22.8,30.5,28.1c28.9,11,61.3-3.5,72.4-32.4C698.5-55.2,686.5-85.3,661.2-98.1z" />
		</g>
		<ellipse class="st7" cx="179.4" cy="122.5" rx="1.7" ry="7.5" />
		<g class="st5">
			<path class="st4" d="M19.2,165.5l-3.7-1.9l-3.7,1.9c-0.8,0.4-1.8-0.3-1.6-1.2l0.7-4.1l-3-2.9c-0.7-0.6-0.3-1.8,0.6-1.9l4.1-0.6
			l1.8-3.7c0.4-0.8,1.6-0.8,2,0l1.8,3.7l4.1,0.6c0.9,0.1,1.3,1.3,0.6,1.9l-3,2.9l0.7,4.1C21,165.3,20,165.9,19.2,165.5z" />
		</g>
		<g class="st5">
			<path class="st4" d="M820.6,165.5l-3.7-1.9l-3.7,1.9c-0.8,0.4-1.8-0.3-1.6-1.2l0.7-4.1l-3-2.9c-0.7-0.6-0.3-1.8,0.6-1.9l4.1-0.6
			l1.8-3.7c0.4-0.8,1.6-0.8,2,0l1.8,3.7l4.1,0.6c0.9,0.1,1.3,1.3,0.6,1.9l-3,2.9l0.7,4.1C822.4,165.3,821.4,165.9,820.6,165.5z" />
		</g>
		<g class="st5">
			<path class="st4" d="M18.2-93.5l-3.7-1.9l-3.7,1.9C10-93,9.1-93.7,9.2-94.6l0.7-4.1l-3-2.9c-0.7-0.6-0.3-1.8,0.6-1.9l4.1-0.6
			l1.8-3.7c0.4-0.8,1.6-0.8,2,0l1.8,3.7l4.1,0.6c0.9,0.1,1.3,1.3,0.6,1.9l-3,2.9l0.7,4.1C20-93.7,19-93,18.2-93.5z" />
		</g>
	</g>
</svg>