<?xml version="1.0" encoding="utf-8"?>
<!-- Generator: Adobe Illustrator 24.2.1, SVG Export Plug-In . SVG Version: 6.00 Build 0)  -->
<svg version="1.1" id="レイヤー_1" xmlns="http://www.w3.org/2000/svg" xmlns:xlink="http://www.w3.org/1999/xlink" x="0px"
	 y="0px" viewBox="0 0 736 220" style="enable-background:new 0 0 736 220;" xml:space="preserve">
<style type="text/css">
	.st0{display:none;opacity:0.5;}
	.st1{clip-path:url(#SVGID_2_);fill:#4E3F56;}
	.st2{clip-path:url(#SVGID_4_);fill:#FBFF79;}
	.st3{clip-path:url(#SVGID_6_);}
	.st4{fill:#FFFFFF;}
	.st5{fill:#FFFFFF;stroke:#6B4181;stroke-miterlimit:10;}
	.st6{fill:#6B4181;}
	.st7{fill:none;stroke:#FFFFFF;stroke-width:4;stroke-miterlimit:10;}
	.st8{fill:none;stroke:#FFFFFF;stroke-miterlimit:10;}
	.st9{clip-path:url(#SVGID_8_);fill:none;}
	.st10{clip-path:url(#SVGID_10_);fill:#FFFFFF;}
	.st11{display:none;}
	.st12{display:inline;}
	.st13{clip-path:url(#SVGID_12_);fill:#4E3F56;}
	.st14{clip-path:url(#SVGID_14_);fill:#97FF79;}
	.st15{display:none;opacity:0.23;}
</style>
<g id="レイヤー_1_1_" class="st0">
	
		<image style="display:inline;overflow:visible;enable-background:new    ;" width="1920" height="1080" xlink:href="B17A580F.png"  transform="matrix(1 0 0 1 3.680420e-02 -4.235840e-02)">
	</image>
</g>
<g id="レイヤー_3">
	<g>
		<g>
			<g>
				<defs>
					<polygon id="SVGID_1_" points="516,0 0,0 0,220 516,220 736,0 					"/>
				</defs>
				<clipPath id="SVGID_2_">
					<use xlink:href="#SVGID_1_"  style="overflow:visible;"/>
				</clipPath>
				<polygon class="st1" points="516,0 0,0 0,220 516,220 736,0 				"/>
			</g>
		</g>
		<g>
			<g>
				<defs>
					<polygon id="SVGID_3_" points="516,0 0,0 0,220 516,220 736,0 					"/>
				</defs>
				<clipPath id="SVGID_4_">
					<use xlink:href="#SVGID_3_"  style="overflow:visible;"/>
				</clipPath>
				<polygon class="st2" points="520.2,230 -10,230 -13,201 508.9,201 733,-23.2 750.2,0 				"/>
			</g>
		</g>
		<g>
			<g>
				<defs>
					<polygon id="SVGID_5_" points="516,0 0,0 0,220 516,220 736,0 					"/>
				</defs>
				<clipPath id="SVGID_6_">
					<use xlink:href="#SVGID_5_"  style="overflow:visible;"/>
				</clipPath>
				<g class="st3">
					<g>
						<path class="st4" d="M110.4,44.5h-7.7v8.1c2.9-0.3,4.8-0.9,6.5-1.7c0.2-0.1,0.3-0.1,0.5-0.1c1,0,2.1,0.8,2.1,2.2
							c0,0.8-0.4,1.8-1.2,2.1c-4.5,1.8-10,2.5-23,2.5c-0.9,0-1.9-0.9-1.9-2.3c0-1.4,0.9-2.3,1.9-2.3h0.9v-8.2c0-0.9,0.8-1.9,2.1-1.9
							s2.1,1,2.1,1.9V53c2.1-0.1,3.8-0.1,5.4-0.2V37c0-1,0.9-2,2.3-2c1.4,0,2.3,1.1,2.3,2v3h7.7c0.9,0,1.8,0.9,1.8,2.1
							C112.2,43.6,111.3,44.5,110.4,44.5z M132.4,77c-0.7,0-1.4-0.3-1.7-0.8l-1.2-2.2c-3.3,1.6-8.3,2.5-14.4,2.5h-1.7v9.1
							c0,1-1,2.1-2.5,2.1s-2.5-1.1-2.5-2.1v-9.1H89.5c-0.8,0-1.8-0.9-1.8-2.2s1-2.1,1.8-2.1H99l5-4.4h-7.7c-1.7,0-2.8-1.4-2.8-2.8
							c0-1,0.6-2,1.3-2.6l5.4-4.3c0.4-0.3,0.8-0.5,1.3-0.5c1.2,0,2,0.9,2,1.8c0,0.3-0.2,0.7-0.4,1l-3.8,3C99.1,63.6,99,63.8,99,64
							c0,0.3,0.2,0.5,0.6,0.5h8.5l4.5-3.9c0.3-0.4,0.8-0.4,1.1-0.4c1.4,0,2.2,1.1,2.2,2.2c0,0.5-0.2,1-0.5,1.3l-9.7,8.7h9.7
							c4.4,0,8.9-0.7,12.2-2l-2.5-4.3c-0.1-0.2-0.2-0.5-0.2-0.7c0-1,1-2,2.3-2c0.5,0,1.2,0.2,1.6,0.8l6,10c0.2,0.2,0.2,0.5,0.2,0.8
							C134.7,75.8,133.7,77,132.4,77z M95.1,85.6c-1,0-2.7-0.6-2.7-1.9c0-1,0.6-2.7,1.8-2.7c1,0,2.6,0.6,2.6,1.8
							C96.8,83.9,96.3,85.6,95.1,85.6z M132.9,42.8l-13,3.3v4.7c0,1.2,0.9,2.2,2.1,2.2h8.6c0.9,0,1.9,1,1.9,2.3c0,1.4-1,2.4-1.9,2.4
							h-9.3c-3.6,0-6.1-2.6-6.1-6.4v-14c0-1,0.9-2,2.4-2c1.4,0,2.4,1.1,2.4,2v4.3l12.2-3c0.1,0,0.2-0.1,0.3-0.1
							c0.9,0,1.9,0.9,1.9,2.2C134.4,41.8,133.7,42.6,132.9,42.8z M127,84.4c-1.1,0-1.9-1.8-1.9-2.7c0-1.1,1.7-1.9,2.6-1.9
							c1,0,1.9,1.8,1.9,2.7C129.6,83.4,127.8,84.4,127,84.4z"/>
						<path class="st4" d="M152.9,85.3h-5.6c-2.3,0-4.1-1.9-4.1-4.2V41c0-2.4,1.8-4.3,4.1-4.3h5.6c2.3,0,4.1,1.9,4.1,4.3v40.1
							C157,83.4,155.2,85.3,152.9,85.3z M153,42.8c0-0.7-0.6-1.4-1.3-1.4h-3.3c-0.8,0-1.3,0.6-1.3,1.4v36.6c0,0.7,0.6,1.4,1.3,1.4
							h3.3c0.8,0,1.3-0.6,1.3-1.4V42.8z M190.1,48h-12.5v12.3h9c0.9,0,2.1,1,2.1,2.5s-1.1,2.4-2.1,2.4h-9.1
							c1.1,5.5,4.9,11.7,10.1,14.8c0.8,0.4,1.1,1.1,1.1,2c0,1.6-1.3,2.6-2.4,2.6c-0.3,0-0.6-0.1-0.8-0.2c-4.5-2.7-8-7.1-10.2-12
							c-2.2,4.7-5.9,9.2-10.4,11.8c-0.2,0.2-0.6,0.2-0.8,0.2c-1.1,0-2.3-1-2.3-2.4c0-0.8,0.3-1.7,1.1-2.2c5.1-3.1,8.7-9.2,9.6-14.6
							h-8.9c-0.9,0-2.1-1-2.1-2.4c0-1.5,1.1-2.5,2.1-2.5h9V48h-12.5c-0.9,0-2-1-2-2.5c0-1.4,1.1-2.4,2-2.4H190c0.9,0,2,1,2,2.4
							C192.1,47,191.1,48,190.1,48z M165.9,41.6c-1.1,0-1.7-1.5-1.7-2.5c0-1.3,1.6-1.8,2.6-1.8c1.1,0,1.7,1.6,1.7,2.6
							C168.5,41.1,166.9,41.6,165.9,41.6z M184.3,41.6c-1,0-2.6-0.6-2.6-1.8c0-1,0.6-2.7,1.7-2.7s2.6,0.6,2.6,1.9
							C186,40,185.3,41.6,184.3,41.6z"/>
						<path class="st4" d="M215.7,45.6c-0.1,0-0.2-0.1-0.3-0.1l-12.5-2.6c-0.8-0.2-1.4-0.9-1.4-2.1c0-1.6,1.1-2.4,2-2.4
							c0.1,0,0.2,0,0.3,0l12.4,2.6c0.9,0.2,1.4,1.1,1.4,2.1C217.6,44.5,216.7,45.6,215.7,45.6z M215.6,61.8l-12.8-2.6
							c-0.8-0.2-1.4-0.8-1.4-2.1c0-1.7,1.1-2.4,2-2.4c0.1,0,0.2,0,0.3,0l12.4,2.6c0.9,0.2,1.4,1,1.4,2.1
							C217.6,60.8,216.5,61.8,215.6,61.8z M244,66.3c-8.8,13.4-22.4,19.6-34.3,19.7c-1.6,0-2.3-1.8-2.3-2.8c0-1.3,0.9-2.2,1.8-2.3
							c13.7-0.8,24.3-8.2,30.6-17.5c0.3-0.5,1-0.8,1.7-0.8c1.4,0,2.8,1.4,2.8,2.7C244.2,65.6,244.2,66,244,66.3z"/>
						<path class="st4" d="M297,52.2h-7v31.7c0,1.1-1.2,2.3-2.9,2.3c-1.7,0-2.9-1.1-2.9-2.3V61.2c-10.2,8-13.9,11.7-26.8,19
							c-0.3,0.2-0.7,0.3-1.1,0.3c-1.2,0-2.4-1.3-2.4-3c0-1.1,0.4-1.8,1-2.1c12.9-7.2,19.3-12.9,29.3-21v-2.3h-22.8
							c-1.2,0-2.4-1.1-2.4-2.9c0-1.7,1.2-2.8,2.4-2.8h22.8v-6.8c0-1.1,1.2-2.3,2.9-2.3c1.7,0,2.9,1.2,2.9,2.3v6.8h7
							c1.1,0,2.3,1.1,2.3,2.8C299.3,51.1,298.1,52.2,297,52.2z"/>
						<path class="st4" d="M326.7,48.9l-12.6-2.3c-0.9-0.2-1.7-1.1-1.7-2.3c0-1.3,0.9-2.8,2.2-2.8l12.7,2.3c0.8,0.2,1.7,1.1,1.7,2.4
							C329,47.9,327.7,48.9,326.7,48.9z M353.8,66.5c-6.9,11.4-20.9,19.7-34,19.7c-1.3,0-2.4-1.4-2.4-2.9c0-1.3,1-2.2,1.9-2.3
							c15.1-0.7,25.7-10.5,30.3-17.3c0.3-0.5,1.1-0.9,1.9-0.9c1.4,0,2.5,1.3,2.5,2.7C354.1,65.9,354,66.3,353.8,66.5z"/>
					</g>
					<path class="st4" d="M112.7,154h-10c-11.3,0-16-5.2-16-12.5v-0.7c0-1,1.1-1.8,2.4-1.8c1.3,0,2.4,0.8,2.4,1.8v0.7
						c0,4.9,4,7.6,11.2,7.6h9.9c8.9,0,11.9-3.2,11.9-7.1v-2.3c0-4.2-3-7.4-12.9-7.4h-7.9c-0.8,0-1.7-0.8-1.7-2.1s0.9-2.1,1.7-2.1
						h8.1c7.6,0,10.1-2.8,10.1-6.5v-2.3c0-4.7-4-6.4-11.6-6.4H98c-0.9,0-2-1-2-2.5c0-1.4,1.1-2.4,2-2.4h12.4
						c10.2,0,16.4,3.2,16.4,11.3v2.5c0,3.7-1.3,6.7-5.7,8.3c6.4,1.9,8.3,5.7,8.3,9.7v2.7C129.5,149.8,124,154,112.7,154z"/>
					<path class="st4" d="M180.9,155.7h-1.6c-0.9,0-1.7-0.9-1.7-2.3c0-1.4,0.7-2.2,1.6-2.2h0.6c1.7,0,2.4-1.1,2.4-2.8v-36.8
						c0-0.8-0.6-1.4-1.3-1.4h-33.2c-0.8,0-1.3,0.6-1.3,1.4v22c0,4.6-0.2,10.2-2.7,14.3c-0.3,0.6-0.9,1-1.9,1c-1.5,0-2.4-1.2-2.4-2.4
						c0-0.2,0.1-0.4,0.1-0.6c2-3.4,2.1-7.1,2.1-12.7v-23.3c0-2.4,1.8-4.3,4.1-4.3H183c2.3,0,4.1,1.9,4.1,4.3v39
						C187.1,153.2,185.2,155.7,180.9,155.7z M171.4,131.3h-14.3c-0.8,0-1.8-0.8-1.8-2.1c0-1.2,0.9-2,1.8-2h5V121h-5
						c-0.8,0-1.8-0.8-1.8-2.1s0.9-2.1,1.8-2.1h5v-3.6c0-1,0.9-1.9,2.3-1.9s2.3,1,2.3,1.9v3.6h4.6c0.8,0,1.8,0.9,1.8,2.1
						c0,1.3-0.9,2.1-1.8,2.1h-4.6v6.2h4.7c0.8,0,1.7,0.8,1.7,2S172.1,131.3,171.4,131.3z"/>
					<path class="st4" d="M238.3,145.6h-13.4v8.8c0,1-1.1,2.2-2.5,2.2c-1.5,0-2.5-1.1-2.5-2.2v-8.8h-24.7c-0.9,0-1.9-0.9-1.9-2.4
						c0-1.3,1-2.3,1.9-2.3h3.2v-13.3c0-2.4,1.8-4.3,4.1-4.3h17.4v-9.8h-15.3c-0.8,2.2-1.9,4.1-3,5.7c-0.4,0.6-1.1,1.1-2,1.1
						c-1.8,0-2.7-1.3-2.7-2.4c0-0.3,0.1-0.7,0.3-1c2.1-3.1,3.7-6.8,4.3-10.5c0.2-1.1,1.1-2,2.4-2c1.5,0,2.7,1.1,2.7,2
						c0,0.8-0.3,1.8-0.4,2.6h28.3c0.9,0,1.9,1,1.9,2.3c0,1.4-1,2.3-1.9,2.3h-9.6v9.8h13.5c0.9,0,1.9,1,1.9,2.3
						c0,1.4-1.1,2.3-1.9,2.3h-13.5v12.9h13.4c0.9,0,2,1,2,2.3C240.3,144.7,239.3,145.6,238.3,145.6z M219.9,128h-15.2
						c-0.8,0-1.3,0.6-1.3,1.5v11.4h16.5V128L219.9,128z"/>
					<path class="st4" d="M272.3,117.8h-21.8c-0.9,0-1.8-0.8-1.8-2.2s0.9-2.3,1.8-2.3h21.8c0.9,0,1.8,0.9,1.8,2.3
						C274.1,116.9,273.1,117.8,272.3,117.8z M267.8,155h-13c-2.3,0-4.1-1.9-4.1-4.3v-9.1c0-2.3,1.8-4.3,4.1-4.3h13
						c2.3,0,4.1,1.9,4.1,4.3v9.1C271.9,153.1,270.1,155,267.8,155z M267.2,109.4h-11.8c-0.8,0-1.6-0.7-1.6-1.9
						c0-1.1,0.8-1.9,1.6-1.9h11.8c0.8,0,1.6,0.8,1.6,1.9C268.8,108.7,268,109.4,267.2,109.4z M267.2,125.6h-11.8
						c-0.8,0-1.6-0.8-1.6-1.9c0-1.1,0.8-1.9,1.6-1.9h11.8c0.8,0,1.6,0.7,1.6,1.9C268.8,124.8,268,125.6,267.2,125.6z M267.3,133.3
						h-11.9c-0.7,0-1.6-0.7-1.6-1.8s0.8-1.8,1.6-1.8h11.9c0.7,0,1.5,0.7,1.5,1.8C268.8,132.6,268,133.3,267.3,133.3z M267.5,142.6
						c0-0.8-0.5-1.4-1.3-1.4h-9.7c-0.7,0-1.3,0.6-1.3,1.4v7.3c0,0.8,0.6,1.4,1.3,1.4h9.7c0.8,0,1.3-0.6,1.3-1.4
						C267.5,149.9,267.5,142.6,267.5,142.6z M293.5,130.6h-10.7c-0.7,0-1.3,0.5-1.3,1.4v14.4c0,2.5,1.4,3.9,3.9,3.9h7.3
						c0.9,0,2,0.9,2,2.3c0,1.4-1,2.5-2,2.5h-8.2c-5.1,0-7.7-3.1-7.7-7.7v-17.3c0-2.4,1.8-4.3,4.1-4.3h10.7c0.8,0,1.4-0.6,1.4-1.3
						v-12.7c0-0.8-0.6-1.4-1.4-1.4h-8.4c-0.9,0-1.9-1-1.9-2.4s1-2.4,1.9-2.4h10.3c2.3,0,4.1,1.9,4.1,4.3v16.5
						C297.7,128.8,295.9,130.6,293.5,130.6z"/>
					<path class="st4" d="M405.3,122.6h-6.4v8.8c0,11.9-5.3,20.7-18.5,23c-0.1,0-0.1,0-0.3,0c-1,0-2.1-1-2.1-2.8
						c0-1,0.8-1.8,1.5-1.9c10.8-1.8,14.7-8.3,14.7-18.1v-9h-23.4v9c0,0.9-0.9,1.9-2.4,1.9c-1.4,0-2.3-1-2.3-1.9v-9h-4.4
						c-0.9,0-1.7-0.9-1.7-2.3c0-1.5,0.8-2.4,1.7-2.4h4.4v-6.5c0-0.9,0.9-1.9,2.3-1.9s2.4,1,2.4,1.9v6.5h23.4v-6.5
						c0-0.9,0.9-1.9,2.4-1.9c1.4,0,2.3,1,2.3,1.9v6.5h6.4c0.9,0,1.9,0.9,1.9,2.4C407.1,121.6,406.2,122.6,405.3,122.6z"/>
					<path class="st4" d="M450.5,113.1c-2.7,7-6.7,10.6-12.7,13V154c0,1.1-1,2.2-2.5,2.2s-2.5-1.1-2.5-2.2v-26.2
						c-1.4,0.3-2.9,0.7-4.4,1.1l-10.8,2.5c-0.1,0.1-0.3,0.1-0.4,0.1c-1.1,0-2.1-1-2.1-2.7c0-1.6,0.9-2.1,1.7-2.3l10.6-2.4
						c11.3-2.6,15.3-5.4,18.5-12.9c0.3-0.6,0.9-1.1,2.2-1.1c1.4,0,2.7,1.2,2.7,2.4C450.6,112.7,450.6,112.9,450.5,113.1z"/>
					<path class="st4" d="M485.3,134.9c-0.1,0-0.2,0-0.2,0c-6.2-1.2-11.8-3.4-16.4-5.7v25.2c0,1-1,2.1-2.5,2.1s-2.5-1.1-2.5-2.1
						v-42.3c0-1,1-2.1,2.5-2.1s2.5,1.1,2.5,2.1v11.4c4.5,2.5,10.6,5,17.1,6.2c0.7,0.1,1.7,1.1,1.7,2.5
						C487.5,134,486.2,134.9,485.3,134.9z"/>
					<path class="st4" d="M445.4,83.5L441,80l-5.4,1.7c-1.2,0.4-2.3-0.8-1.9-2l1.9-5.4l-3.3-4.7c-0.7-1,0-2.5,1.3-2.4l5.6,0.2
						l3.3-4.6c0.7-1,2.3-0.7,2.6,0.5l1.6,5.5l5.3,1.8c1.2,0.4,1.4,2,0.4,2.7l-4.7,3.2v5.8C447.8,83.6,446.4,84.3,445.4,83.5z"/>
					<path class="st4" d="M457.8,94.1l-1.2-2.6l-2.8-0.5c-0.6-0.1-0.8-0.9-0.4-1.3l2.1-1.9l-0.4-2.9c-0.1-0.6,0.6-1.1,1.1-0.8
						l2.5,1.4l2.5-1.3c0.6-0.3,1.2,0.2,1.1,0.8l-0.6,2.8l2,2.1c0.4,0.5,0.2,1.2-0.5,1.3l-2.8,0.3l-1.3,2.5
						C458.8,94.8,458,94.7,457.8,94.1z"/>
					<g>
						<path class="st4" d="M321.6,116.4c-0.8,0-1.7,0.8-1.7,2c0,1.1,0.9,2,1.7,2h16c0.8,0,1.7-0.8,1.7-2s-0.9-2-1.7-2H321.6z"/>
						<path class="st4" d="M310.5,118.3c0.1,0,0.1,0,0.1,0c6.1-1.3,13.1-4.9,18-9.5c0.4-0.4,0.7-0.6,1-0.6c0.3,0,0.7,0.2,1,0.6
							c4.8,4.5,11.8,8.2,17.9,9.5h0.1c1,0,2.3-1,2.3-2.5c0-1.2-0.7-2.2-1.4-2.3c-5.7-1.1-11.8-4.1-15.6-7.6
							c-1.3-0.9-2.3-1.8-4.4-1.8c-2,0-3.1,0.9-4.3,1.8c-3.8,3.5-10,6.6-15.6,7.6c-0.8,0.1-1.4,1.1-1.4,2.3
							C308.3,117.3,309.5,118.3,310.5,118.3z"/>
						<path class="st4" d="M336.9,150.7h-9.1c-2.4,0-3.8-1.6-3.8-3.9v-6.1c0-1-0.9-2-2.4-2c-1.4,0-2.4,1.1-2.4,2v6.9
							c0,4.5,2.4,7.4,7.4,7.4h10.3c0.9,0,1.8-1,1.8-2.2C338.7,151.5,337.7,150.7,336.9,150.7z"/>
						<path class="st4" d="M311.3,141.4c-0.9,0-1.7,0.7-1.9,1.3l-2.8,9.1c-0.1,0.1-0.1,0.3-0.1,0.4c0,1.1,1.3,1.8,2.2,1.8
							c1,0,1.7-0.6,1.9-1.3l2.8-9c0.1-0.2,0.1-0.3,0.1-0.5C313.6,142.1,312.3,141.4,311.3,141.4z"/>
						<path class="st4" d="M351.2,128.8c0-2.1-1.8-3.4-3.6-3.4H315c-0.8,0-1.8,0.8-1.8,2.2c0,1.3,1,2.1,1.8,2.1h29.5
							c0.4,0,0.7,0.2,0.7,0.4s-0.1,0.4-0.3,0.6l-5.5,5.2c-0.3,0.3-0.5,0.7-0.5,1.1c0,1.1,1,2.2,2.4,2.2c0.5,0,1-0.2,1.4-0.6l7.5-7.1
							C350.7,130.9,351.2,129.9,351.2,128.8z"/>
						<path class="st4" d="M339.2,143.7l-1.7-0.9c0-0.1-0.1-0.1-0.1-0.2l-0.2-1.9c0-0.5-0.6-0.7-0.9-0.3l-1.5,1.5l-2-0.4
							c-0.4-0.1-0.8,0.4-0.6,0.8l0.9,1.9l-1,1.8c-0.2,0.4,0.1,0.9,0.5,0.8l2-0.3l1.4,1.5c0.3,0.3,0.9,0.2,0.9-0.3l0.4-2l1.8-0.9
							C339.5,144.5,339.6,143.9,339.2,143.7z"/>
						<path class="st4" d="M351.2,147.7h-2.3l-1.3-1.9c-0.3-0.4-0.9-0.3-1.1,0.2l-0.7,2.2l-2.2,0.6c-0.5,0.1-0.6,0.8-0.2,1.1
							l1.8,1.4l-0.1,2.3c0,0.5,0.5,0.8,1,0.5l1.9-1.4l2.1,0.8c0.5,0.2,0.9-0.3,0.8-0.8l-0.7-2.2l1.4-1.8
							C352,148.3,351.7,147.7,351.2,147.7z"/>
					</g>
					<path class="st4" d="M173.7,142.9c0.8-0.8,0.4-2.3-0.8-2.4l-4.8-0.7c1.1-0.9,2.6-2,4.5-2.5L171,135c0,0-2.2,2.1-3.5,4.4
						l-2.1-4.4c-0.5-1.1-2-1.1-2.5,0l-2.1,4.4c-1.3-2.3-3.5-4.4-3.5-4.4l-1.6,2.3c1.8,0.5,3.4,1.6,4.5,2.5l-4.8,0.7
						c-1.1,0.2-1.6,1.6-0.8,2.4l3.6,3.6c-2.2,0.8-4,2.3-4,2.3l2,2c0.6-1.3,1.3-2.4,2-3.1l-0.7,4.3c-0.2,1.2,1,2.1,2,1.5l4-2.1
						c-0.3,0.9-0.6,1.9-0.7,2.5h2.7c0,0-0.3-1.2-0.6-2.5l3.9,2.1c1,0.5,2.2-0.3,2-1.5l-0.7-4.1c0.6,0.7,1.3,1.7,1.8,2.9l2-2
						c0,0-1.8-1.5-4-2.2L173.7,142.9z"/>
					<ellipse class="st5" cx="164.3" cy="145" rx="3.7" ry="3.8"/>
					<path class="st4" d="M413.3,28.2c3.3,7.1,3.9,15.5,1,23.4c-5.7,15.3-22.5,23-37.4,17.1c-1-0.4-1.9-0.8-2.8-1.3
						c3.1,6.6,8.6,12.1,15.8,14.9c15,5.8,31.7-1.8,37.4-17.2C432.6,50.9,426.4,35,413.3,28.2z"/>
					<ellipse class="st6" cx="164.3" cy="144.9" rx="0.9" ry="4"/>
					<path class="st4" d="M81.5,167.7l-1.9-1l-1.9,1c-0.4,0.2-0.9-0.1-0.8-0.6l0.4-2.2l-1.5-1.5c-0.3-0.3-0.1-0.9,0.3-1l2.1-0.3
						l0.9-2c0.2-0.4,0.8-0.4,1,0l0.9,2l2.1,0.3c0.5,0.1,0.7,0.7,0.3,1l-1.5,1.5l0.4,2.2C82.5,167.6,82,167.9,81.5,167.7z"/>
					<path class="st4" d="M495.7,167.7l-1.9-1l-1.9,1c-0.4,0.2-0.9-0.1-0.8-0.6l0.4-2.2l-1.5-1.5c-0.3-0.3-0.1-0.9,0.3-1l2.1-0.3
						l1-2c0.2-0.4,0.8-0.4,1,0l1,2l2.1,0.3c0.5,0.1,0.7,0.7,0.3,1l-1.5,1.5l0.4,2.2C496.6,167.6,496.1,167.9,495.7,167.7z"/>
					<path class="st4" d="M495.7,30.7l-1.9-1l-1.9,1c-0.4,0.2-0.9-0.1-0.8-0.6l0.4-2.2l-1.5-1.5c-0.3-0.3-0.1-0.9,0.3-1l2.1-0.3l1-2
						c0.2-0.4,0.8-0.4,1,0l1,2l2.1,0.3c0.5,0.1,0.7,0.7,0.3,1l-1.5,1.5l0.4,2.2C496.6,30.5,496.1,30.9,495.7,30.7z"/>
					<path class="st4" d="M81,30.7l-1.9-1l-1.9,1c-0.4,0.2-0.9-0.1-0.8-0.6l0.4-2.2l-1.5-1.5c-0.3-0.3-0.1-0.9,0.3-1l2.1-0.3l0.9-2
						c0.2-0.4,0.8-0.4,1,0l0.9,2l2.1,0.3c0.5,0.1,0.7,0.7,0.3,1l-1.5,1.5l0.4,2.2C81.9,30.5,81.4,30.9,81,30.7z"/>
					<rect x="68" y="15.7" class="st7" width="438" height="159.3"/>
					<rect x="73.1" y="20.4" class="st8" width="427.4" height="149.7"/>
				</g>
			</g>
		</g>
		<g>
			<g>
				<defs>
					<polygon id="SVGID_7_" points="516,0 0,0 0,220 516,220 736,0 					"/>
				</defs>
				<clipPath id="SVGID_8_">
					<use xlink:href="#SVGID_7_"  style="overflow:visible;"/>
				</clipPath>
				<polygon class="st9" points="516,0 0,0 0,220 516,220 736,0 				"/>
			</g>
		</g>
		<g>
			<g>
				<defs>
					<polygon id="SVGID_9_" points="516,0 0,0 0,220 516,220 736,0 					"/>
				</defs>
				<clipPath id="SVGID_10_">
					<use xlink:href="#SVGID_9_"  style="overflow:visible;"/>
				</clipPath>
				<polygon class="st10" points="54,14 54,177 8,95.3 				"/>
			</g>
		</g>
	</g>
	<g class="st11">
		<g class="st12">
			<g>
				<defs>
					<polygon id="SVGID_11_" points="1497.3,1080 1920,1080 1920,878 1497.3,878 1317,1080 					"/>
				</defs>
				<clipPath id="SVGID_12_">
					<use xlink:href="#SVGID_11_"  style="overflow:visible;"/>
				</clipPath>
				<polygon class="st13" points="1497.3,1080 1920,1080 1920,878 1497.3,878 1317,1080 				"/>
			</g>
		</g>
		<g class="st12">
			<g>
				<defs>
					<polygon id="SVGID_13_" points="1497.3,1080 1920,1080 1920,878 1497.3,878 1317,1080 					"/>
				</defs>
				<clipPath id="SVGID_14_">
					<use xlink:href="#SVGID_13_"  style="overflow:visible;"/>
				</clipPath>
				<polygon class="st14" points="1497.3,877 1931.6,877 1934.1,903.7 1506.5,903.7 1322.9,1109.5 1308.8,1088.2 				"/>
			</g>
		</g>
	</g>
</g>
<g id="レイヤー_2_1_" class="st15">
	
		<image style="display:inline;overflow:visible;enable-background:new    ;" width="1920" height="1080" xlink:href="B17A580D.png"  transform="matrix(1 0 0 1 3.680420e-02 -4.235840e-02)">
	</image>
</g>
</svg>
