<?xml version="1.0" encoding="utf-8"?>
<!-- Generator: Adobe Illustrator 24.2.1, SVG Export Plug-In . SVG Version: 6.00 Build 0)  -->
<svg version="1.1" id="レイヤー_1" xmlns="http://www.w3.org/2000/svg" xmlns:xlink="http://www.w3.org/1999/xlink" x="0px"
	 y="0px" viewBox="0 0 610.4 202" style="enable-background:new 0 0 610.4 202;" xml:space="preserve">
<style type="text/css">
	.st0{display:none;opacity:0.5;}
	.st1{display:none;}
	.st2{display:inline;}
	.st3{clip-path:url(#SVGID_2_);fill:#4E3F56;}
	.st4{clip-path:url(#SVGID_4_);fill:#FBFF79;}
	.st5{clip-path:url(#SVGID_6_);}
	.st6{fill:#FFFFFF;}
	.st7{fill:#FFFFFF;stroke:#6B4181;stroke-miterlimit:10;}
	.st8{fill:#6B4181;}
	.st9{fill:none;stroke:#FFFFFF;stroke-width:4;stroke-miterlimit:10;}
	.st10{fill:none;stroke:#FFFFFF;stroke-miterlimit:10;}
	.st11{clip-path:url(#SVGID_8_);fill:none;}
	.st12{clip-path:url(#SVGID_10_);fill:#FFFFFF;}
	.st13{clip-path:url(#SVGID_12_);fill:#4E3F56;}
	.st14{clip-path:url(#SVGID_14_);fill:#97FF79;}
	.st15{display:none;opacity:0.23;}
</style>
<g id="レイヤー_1_1_" class="st0">
	
		<image style="display:inline;overflow:visible;enable-background:new    ;" width="1920" height="1080" xlink:href="1033776E.png"  transform="matrix(1 0 0 1 -1309.5895 -878)">
	</image>
</g>
<g id="レイヤー_3">
	<g class="st1">
		<g class="st2">
			<defs>
				<polygon id="SVGID_1_" points="-793.6,-878 -1309.6,-878 -1309.6,-658 -793.6,-658 -573.6,-878 				"/>
			</defs>
			<clipPath id="SVGID_2_">
				<use xlink:href="#SVGID_1_"  style="overflow:visible;"/>
			</clipPath>
			<polygon class="st3" points="-793.6,-878 -1309.6,-878 -1309.6,-658 -793.6,-658 -573.6,-878 			"/>
		</g>
		<g class="st2">
			<defs>
				<polygon id="SVGID_3_" points="-793.6,-878 -1309.6,-878 -1309.6,-658 -793.6,-658 -573.6,-878 				"/>
			</defs>
			<clipPath id="SVGID_4_">
				<use xlink:href="#SVGID_3_"  style="overflow:visible;"/>
			</clipPath>
			<polygon class="st4" points="-789.4,-648 -1319.6,-648 -1322.6,-677 -800.7,-677 -576.6,-901.1 -559.4,-878 			"/>
		</g>
		<g class="st2">
			<defs>
				<polygon id="SVGID_5_" points="-793.6,-878 -1309.6,-878 -1309.6,-658 -793.6,-658 -573.6,-878 				"/>
			</defs>
			<clipPath id="SVGID_6_">
				<use xlink:href="#SVGID_5_"  style="overflow:visible;"/>
			</clipPath>
			<g class="st5">
				<g>
					<path class="st6" d="M-1199.2-833.5h-7.7v8.1c2.9-0.3,4.8-0.9,6.5-1.7c0.2-0.1,0.3-0.1,0.5-0.1c1,0,2.1,0.8,2.1,2.1
						c0,0.8-0.4,1.8-1.2,2.1c-4.5,1.8-10,2.5-23,2.5c-0.9,0-1.9-0.9-1.9-2.3c0-1.4,0.9-2.3,1.9-2.3h0.9v-8.1c0-0.9,0.8-1.9,2.1-1.9
						s2.1,1,2.1,1.9v8.2c2.1-0.1,3.8-0.1,5.4-0.2v-15.8c0-1,0.9-2,2.3-2s2.3,1.1,2.3,2v3h7.7c0.9,0,1.8,0.9,1.8,2.2
						C-1197.4-834.3-1198.4-833.5-1199.2-833.5z M-1177.2-801c-0.7,0-1.4-0.3-1.7-0.8l-1.2-2.2c-3.3,1.6-8.4,2.5-14.4,2.5h-1.7v9.1
						c0,1-1,2.2-2.5,2.2s-2.5-1.1-2.5-2.2v-9.1h-18.9c-0.8,0-1.8-0.8-1.8-2.2c0-1.3,1-2.1,1.8-2.1h9.5l5-4.4h-7.7
						c-1.7,0-2.8-1.4-2.8-2.8c0-1,0.6-2,1.3-2.6l5.4-4.3c0.4-0.3,0.8-0.5,1.3-0.5c1.2,0,2,0.9,2,1.8c0,0.3-0.2,0.7-0.4,1l-3.8,3
						c-0.2,0.2-0.3,0.4-0.3,0.6c0,0.3,0.2,0.5,0.6,0.5h8.5l4.5-3.9c0.3-0.4,0.8-0.4,1.1-0.4c1.4,0,2.2,1.1,2.2,2.1
						c0,0.5-0.2,1-0.5,1.3l-9.7,8.7h9.7c4.4,0,8.8-0.7,12.2-2l-2.5-4.3c-0.1-0.2-0.2-0.5-0.2-0.7c0-1,1-2,2.3-2
						c0.5,0,1.2,0.2,1.6,0.8l6,10c0.2,0.2,0.2,0.5,0.2,0.8C-1175-802.1-1175.9-801-1177.2-801z M-1214.6-792.3c-1,0-2.7-0.6-2.7-1.9
						c0-1,0.6-2.7,1.8-2.7c1,0,2.6,0.6,2.6,1.8C-1212.9-794.1-1213.4-792.3-1214.6-792.3z M-1176.7-835.2l-13,3.3v4.7
						c0,1.2,0.9,2.1,2.1,2.1h8.6c0.9,0,1.9,1,1.9,2.3c0,1.4-1,2.4-1.9,2.4h-9.3c-3.6,0-6.1-2.6-6.1-6.4v-14c0-1,0.9-2,2.4-2
						c1.4,0,2.4,1.1,2.4,2v4.3l12.2-3c0.1,0,0.2-0.1,0.3-0.1c0.9,0,1.9,0.8,1.9,2.2C-1175.2-836.2-1176-835.4-1176.7-835.2z
						 M-1182.7-793.5c-1.1,0-1.9-1.8-1.9-2.7c0-1.1,1.7-1.9,2.6-1.9c1,0,1.9,1.8,1.9,2.7C-1180.1-794.5-1181.8-793.5-1182.7-793.5z"
						/>
					<path class="st6" d="M-1156.8-792.7h-5.6c-2.3,0-4.2-1.9-4.2-4.2V-837c0-2.4,1.8-4.3,4.2-4.3h5.6c2.3,0,4.1,1.9,4.1,4.3v40.1
						C-1152.6-794.5-1154.4-792.7-1156.8-792.7z M-1156.6-835.2c0-0.7-0.5-1.4-1.3-1.4h-3.3c-0.8,0-1.3,0.6-1.3,1.4v36.6
						c0,0.7,0.6,1.4,1.3,1.4h3.3c0.8,0,1.3-0.6,1.3-1.4V-835.2z M-1119.5-829.9h-12.5v12.3h9c0.9,0,2.1,1,2.1,2.5
						c0,1.5-1.1,2.4-2.1,2.4h-9.1c1.1,5.5,4.9,11.7,10.1,14.8c0.8,0.5,1.1,1.1,1.1,2c0,1.6-1.3,2.6-2.4,2.6c-0.3,0-0.6-0.1-0.8-0.2
						c-4.5-2.7-8-7.1-10.2-12c-2.2,4.7-5.9,9.2-10.4,11.8c-0.2,0.2-0.6,0.2-0.8,0.2c-1.1,0-2.3-1-2.3-2.4c0-0.9,0.3-1.7,1.1-2.2
						c5.1-3.1,8.7-9.2,9.6-14.6h-8.8c-0.9,0-2.1-1-2.1-2.4c0-1.5,1.1-2.5,2.1-2.5h9v-12.3h-12.5c-0.9,0-2-1-2-2.5
						c0-1.4,1.1-2.4,2-2.4h29.9c0.9,0,2,1,2,2.4C-1117.5-831-1118.5-829.9-1119.5-829.9z M-1143.7-836.3c-1.1,0-1.7-1.5-1.7-2.5
						c0-1.3,1.5-1.8,2.6-1.8c1.1,0,1.7,1.6,1.7,2.6C-1141.1-836.9-1142.7-836.3-1143.7-836.3z M-1125.3-836.3c-1,0-2.6-0.6-2.6-1.8
						c0-1,0.6-2.7,1.7-2.7c1.1,0,2.6,0.6,2.6,1.9C-1123.6-837.9-1124.3-836.3-1125.3-836.3z"/>
					<path class="st6" d="M-1093.9-832.4c-0.1,0-0.2-0.1-0.3-0.1l-12.5-2.6c-0.8-0.2-1.4-0.9-1.4-2.1c0-1.6,1.1-2.4,2-2.4
						c0.1,0,0.2,0,0.3,0l12.5,2.5c0.9,0.2,1.4,1.1,1.4,2.1C-1092-833.5-1092.9-832.4-1093.9-832.4z M-1094-816.1l-12.8-2.6
						c-0.8-0.2-1.4-0.9-1.4-2.1c0-1.7,1.1-2.4,2-2.4c0.1,0,0.2,0,0.3,0l12.5,2.6c0.9,0.2,1.4,1,1.4,2.1
						C-1092-817.1-1093.1-816.1-1094-816.1z M-1065.7-811.7c-8.8,13.4-22.4,19.7-34.3,19.7c-1.6,0-2.3-1.8-2.3-2.8
						c0-1.3,0.9-2.2,1.8-2.3c13.7-0.8,24.3-8.2,30.6-17.5c0.3-0.5,1-0.8,1.7-0.8c1.4,0,2.8,1.4,2.8,2.7
						C-1065.4-812.3-1065.4-811.9-1065.7-811.7z"/>
					<path class="st6" d="M-1012.6-825.7h-7v31.7c0,1.1-1.2,2.3-2.9,2.3s-2.9-1.1-2.9-2.3v-22.7c-10.2,8-13.9,11.7-26.8,19
						c-0.3,0.2-0.7,0.3-1.1,0.3c-1.2,0-2.4-1.3-2.4-3c0-1.1,0.4-1.8,1-2.1c12.9-7.2,19.3-12.9,29.3-21v-2.3h-22.8
						c-1.2,0-2.4-1.1-2.4-2.9c0-1.7,1.2-2.8,2.4-2.8h22.8v-6.8c0-1.1,1.2-2.3,2.9-2.3s2.9,1.2,2.9,2.3v6.8h7c1.1,0,2.3,1.1,2.3,2.8
						C-1010.3-826.9-1011.5-825.7-1012.6-825.7z"/>
					<path class="st6" d="M-982.9-829.1l-12.6-2.3c-0.9-0.2-1.7-1.1-1.7-2.3c0-1.3,0.9-2.8,2.2-2.8l12.7,2.3
						c0.8,0.2,1.7,1.1,1.7,2.4C-980.6-830-981.9-829.1-982.9-829.1z M-955.8-811.4c-6.9,11.4-20.9,19.7-34,19.7
						c-1.3,0-2.4-1.4-2.4-2.9c0-1.3,1-2.2,1.9-2.3c15.1-0.7,25.7-10.5,30.3-17.3c0.3-0.5,1.1-0.9,1.9-0.9c1.4,0,2.5,1.3,2.5,2.7
						C-955.5-812.1-955.6-811.7-955.8-811.4z"/>
				</g>
				<path class="st6" d="M-1197-723.9h-10c-11.3,0-16-5.2-16-12.5v-0.7c0-1,1.1-1.8,2.4-1.8c1.3,0,2.4,0.8,2.4,1.8v0.7
					c0,4.9,4,7.6,11.2,7.6h9.9c8.9,0,12-3.2,12-7.1v-2.3c0-4.2-3-7.4-12.9-7.4h-7.8c-0.8,0-1.7-0.9-1.7-2.1s0.9-2.1,1.7-2.1h8.1
					c7.6,0,10.1-2.8,10.1-6.5v-2.3c0-4.7-4-6.5-11.6-6.5h-12.3c-0.9,0-2-1-2-2.5c0-1.4,1.1-2.4,2-2.4h12.4
					c10.2,0,16.4,3.2,16.4,11.3v2.5c0,3.7-1.3,6.7-5.7,8.3c6.4,1.9,8.3,5.7,8.3,9.7v2.7C-1180.1-728.1-1185.7-723.9-1197-723.9z"/>
				<path class="st6" d="M-1128.7-722.3h-1.5c-0.9,0-1.7-0.9-1.7-2.3c0-1.4,0.7-2.2,1.6-2.2h0.6c1.7,0,2.4-1.1,2.4-2.8v-36.8
					c0-0.8-0.6-1.4-1.3-1.4h-33.2c-0.8,0-1.3,0.6-1.3,1.4v22c0,4.6-0.2,10.2-2.7,14.3c-0.3,0.6-0.9,1-1.9,1c-1.5,0-2.4-1.2-2.4-2.4
					c0-0.2,0.1-0.4,0.1-0.6c2-3.5,2.1-7.1,2.1-12.7v-23.3c0-2.4,1.8-4.3,4.2-4.3h37.3c2.3,0,4.2,1.9,4.2,4.3v39
					C-1122.6-724.8-1124.4-722.3-1128.7-722.3z M-1138.3-746.7h-14.3c-0.8,0-1.8-0.9-1.8-2.1c0-1.2,0.9-2,1.8-2h5v-6.2h-5
					c-0.8,0-1.8-0.9-1.8-2.2c0-1.3,0.9-2.1,1.8-2.1h5v-3.6c0-1,0.9-1.9,2.3-1.9s2.3,1,2.3,1.9v3.6h4.7c0.8,0,1.8,0.8,1.8,2.1
					c0,1.3-0.9,2.2-1.8,2.2h-4.7v6.2h4.7c0.8,0,1.7,0.8,1.7,2C-1136.5-747.5-1137.5-746.7-1138.3-746.7z"/>
				<path class="st6" d="M-1071.3-732.3h-13.4v8.8c0,1-1.1,2.1-2.5,2.1s-2.5-1.1-2.5-2.1v-8.8h-24.7c-0.9,0-1.9-0.9-1.9-2.4
					c0-1.3,1-2.3,1.9-2.3h3.2v-13.3c0-2.4,1.8-4.3,4.2-4.3h17.3v-9.8h-15.3c-0.8,2.1-1.9,4.1-3,5.7c-0.4,0.6-1.1,1.1-2,1.1
					c-1.8,0-2.7-1.3-2.7-2.4c0-0.3,0.1-0.7,0.3-1c2.1-3.1,3.7-6.8,4.3-10.5c0.2-1.1,1.1-2,2.4-2c1.5,0,2.7,1.1,2.7,2
					c0,0.8-0.3,1.8-0.4,2.6h28.3c0.9,0,1.9,1,1.9,2.3c0,1.4-1,2.3-1.9,2.3h-9.4v9.8h13.5c0.9,0,1.9,1,1.9,2.3c0,1.4-1,2.3-1.9,2.3
					h-13.5v12.9h13.4c0.9,0,2,1,2,2.3C-1069.3-733.2-1070.3-732.3-1071.3-732.3z M-1089.8-749.9h-15.2c-0.8,0-1.3,0.6-1.3,1.5v11.4
					h16.5V-749.9L-1089.8-749.9z"/>
				<path class="st6" d="M-1037.4-760.2h-21.8c-0.9,0-1.8-0.8-1.8-2.1c0-1.4,0.9-2.3,1.8-2.3h21.8c0.9,0,1.8,0.9,1.8,2.3
					C-1035.5-761-1036.5-760.2-1037.4-760.2z M-1041.8-722.9h-13c-2.3,0-4.2-1.9-4.2-4.3v-9.1c0-2.3,1.8-4.3,4.2-4.3h13
					c2.3,0,4.2,1.9,4.2,4.3v9.1C-1037.7-724.8-1039.5-722.9-1041.8-722.9z M-1042.4-768.5h-11.8c-0.8,0-1.6-0.7-1.6-1.9
					c0-1.1,0.8-1.9,1.6-1.9h11.8c0.8,0,1.6,0.8,1.6,1.9C-1040.8-769.3-1041.6-768.5-1042.4-768.5z M-1042.4-752.3h-11.8
					c-0.8,0-1.6-0.8-1.6-1.9c0-1.1,0.8-1.9,1.6-1.9h11.8c0.8,0,1.6,0.7,1.6,1.9C-1040.8-753.1-1041.6-752.3-1042.4-752.3z
					 M-1042.3-744.7h-11.9c-0.7,0-1.6-0.7-1.6-1.8s0.8-1.8,1.6-1.8h11.9c0.7,0,1.5,0.7,1.5,1.8
					C-1040.9-745.3-1041.6-744.7-1042.3-744.7z M-1042.1-735.3c0-0.8-0.5-1.4-1.3-1.4h-9.7c-0.7,0-1.3,0.6-1.3,1.4v7.3
					c0,0.8,0.6,1.4,1.3,1.4h9.7c0.8,0,1.3-0.6,1.3-1.4V-735.3z M-1016.1-747.3h-10.7c-0.7,0-1.3,0.5-1.3,1.4v14.4
					c0,2.5,1.4,3.9,3.9,3.9h7.3c0.9,0,2,0.9,2,2.3c0,1.4-1,2.5-2,2.5h-8.2c-5.1,0-7.7-3.1-7.7-7.7v-17.3c0-2.4,1.8-4.3,4.2-4.3h10.7
					c0.8,0,1.4-0.6,1.4-1.3v-12.7c0-0.9-0.6-1.4-1.4-1.4h-8.4c-0.9,0-1.9-1-1.9-2.4c0-1.4,1-2.4,1.9-2.4h10.3c2.3,0,4.1,1.9,4.1,4.3
					v16.5C-1011.9-749.2-1013.7-747.3-1016.1-747.3z"/>
				<path class="st6" d="M-904.4-755.4h-6.4v8.8c0,11.9-5.3,20.7-18.5,23c-0.1,0-0.1,0-0.3,0c-1,0-2.1-1-2.1-2.8
					c0-1,0.8-1.8,1.5-1.9c10.8-1.8,14.7-8.3,14.7-18.1v-9h-23.4v9c0,0.9-0.9,1.9-2.3,1.9c-1.4,0-2.3-1-2.3-1.9v-9h-4.4
					c-0.9,0-1.7-0.9-1.7-2.3c0-1.5,0.8-2.4,1.7-2.4h4.4v-6.5c0-0.9,0.9-1.9,2.3-1.9c1.4,0,2.3,1,2.3,1.9v6.5h23.4v-6.5
					c0-0.9,0.9-1.9,2.4-1.9c1.4,0,2.3,1,2.3,1.9v6.5h6.4c0.9,0,1.9,0.9,1.9,2.4C-902.5-756.3-903.4-755.4-904.4-755.4z"/>
				<path class="st6" d="M-859.1-764.8c-2.7,7-6.7,10.6-12.7,13v27.9c0,1.1-1,2.1-2.5,2.1c-1.5,0-2.5-1.1-2.5-2.1v-26.2
					c-1.4,0.3-2.9,0.7-4.4,1.1l-10.8,2.5c-0.1,0.1-0.3,0.1-0.4,0.1c-1.1,0-2.1-1-2.1-2.7c0-1.6,0.9-2.2,1.7-2.3l10.6-2.4
					c11.3-2.5,15.3-5.4,18.5-12.8c0.3-0.6,0.9-1.1,2.2-1.1c1.4,0,2.7,1.2,2.7,2.4C-859-765.3-859-765-859.1-764.8z"/>
				<path class="st6" d="M-824.3-743c-0.1,0-0.2,0-0.2,0c-6.2-1.2-11.8-3.4-16.4-5.7v25.2c0,1-1,2.1-2.5,2.1s-2.5-1.1-2.5-2.1v-42.3
					c0-1,1-2.1,2.5-2.1s2.5,1.1,2.5,2.1v11.4c4.5,2.6,10.6,5,17.1,6.2c0.7,0.1,1.7,1.1,1.7,2.5C-822.1-744-823.4-743-824.3-743z"/>
				<path class="st6" d="M-864.2-794.5l-4.4-3.5l-5.4,1.7c-1.2,0.4-2.3-0.8-1.9-2l1.9-5.4l-3.3-4.7c-0.7-1,0-2.5,1.3-2.4l5.6,0.2
					l3.3-4.6c0.7-1,2.3-0.7,2.6,0.5l1.6,5.5l5.3,1.8c1.2,0.4,1.4,2,0.4,2.7l-4.7,3.2l0,5.8C-861.8-794.4-863.2-793.7-864.2-794.5z"
					/>
				<path class="st6" d="M-851.9-783.8l-1.2-2.6l-2.8-0.5c-0.6-0.1-0.8-0.9-0.4-1.3l2.1-2l-0.4-2.9c-0.1-0.6,0.6-1.1,1.1-0.8
					l2.5,1.4l2.5-1.3c0.6-0.3,1.2,0.2,1.1,0.8l-0.6,2.8l2,2.1c0.4,0.5,0.2,1.2-0.5,1.3l-2.8,0.3l-1.3,2.5
					C-850.8-783.2-851.6-783.2-851.9-783.8z"/>
				<g>
					<path class="st6" d="M-988-761.6c-0.8,0-1.7,0.8-1.7,2c0,1.1,0.9,2,1.7,2h16c0.8,0,1.7-0.8,1.7-2c0-1.2-0.9-2-1.7-2H-988z"/>
					<path class="st6" d="M-999.1-759.7c0.1,0,0.1,0,0.1,0c6.1-1.3,13.1-4.9,18-9.5c0.4-0.4,0.7-0.6,1-0.6c0.3,0,0.7,0.2,1,0.6
						c4.8,4.5,11.8,8.1,17.9,9.5h0.1c1,0,2.3-1,2.3-2.5c0-1.2-0.7-2.1-1.4-2.3c-5.7-1.1-11.8-4.1-15.6-7.6c-1.3-0.9-2.3-1.8-4.4-1.8
						c-2,0-3.1,0.9-4.3,1.8c-3.8,3.5-10,6.6-15.7,7.6c-0.8,0.1-1.4,1.1-1.4,2.3C-1001.4-760.7-1000.1-759.7-999.1-759.7z"/>
					<path class="st6" d="M-972.8-727.3h-9.1c-2.4,0-3.8-1.6-3.8-3.9v-6.1c0-1-0.9-2-2.4-2c-1.4,0-2.4,1.1-2.4,2v6.9
						c0,4.5,2.4,7.4,7.4,7.4h10.3c0.9,0,1.8-1,1.8-2.2C-970.9-726.4-971.9-727.3-972.8-727.3z"/>
					<path class="st6" d="M-998.3-736.5c-0.9,0-1.7,0.7-1.9,1.3l-2.8,9.1c-0.1,0.1-0.1,0.3-0.1,0.4c0,1.1,1.3,1.8,2.2,1.8
						c1,0,1.7-0.6,1.9-1.3l2.8-9c0.1-0.2,0.1-0.3,0.1-0.5C-996-735.8-997.3-736.5-998.3-736.5z"/>
					<path class="st6" d="M-958.4-749.1c0-2.2-1.8-3.4-3.7-3.4h-32.6c-0.8,0-1.8,0.9-1.8,2.2c0,1.3,1,2.1,1.8,2.1h29.5
						c0.4,0,0.7,0.2,0.7,0.4c0,0.2-0.1,0.4-0.3,0.6l-5.5,5.2c-0.3,0.3-0.5,0.7-0.5,1.1c0,1.1,1,2.2,2.4,2.2c0.5,0,1-0.2,1.4-0.6
						l7.5-7.1C-958.9-747.1-958.4-748-958.4-749.1z"/>
					<path class="st6" d="M-970.5-734.2l-1.7-0.9c0-0.1-0.1-0.1-0.1-0.2l-0.2-1.9c0-0.5-0.6-0.6-0.9-0.3l-1.5,1.4l-2-0.4
						c-0.4-0.1-0.8,0.4-0.6,0.8l0.9,1.9l-1,1.8c-0.2,0.4,0.1,0.9,0.5,0.8l2-0.3l1.4,1.5c0.3,0.3,0.8,0.2,0.9-0.3l0.3-2l1.8-0.9
						C-970.1-733.4-970.1-734-970.5-734.2z"/>
					<path class="st6" d="M-958.4-730.3l-2.3,0l-1.3-1.9c-0.3-0.4-0.9-0.3-1.1,0.1l-0.7,2.2l-2.2,0.6c-0.5,0.1-0.6,0.8-0.2,1.1
						l1.8,1.4l-0.1,2.3c0,0.5,0.5,0.8,1,0.5l1.9-1.3l2.1,0.8c0.5,0.2,0.9-0.3,0.8-0.8l-0.7-2.2l1.4-1.8
						C-957.6-729.7-957.9-730.3-958.4-730.3z"/>
				</g>
				<path class="st6" d="M-1135.9-735c0.8-0.8,0.4-2.3-0.8-2.4l-4.8-0.7c1.1-0.9,2.6-2,4.5-2.5l-1.6-2.3c0,0-2.2,2.1-3.5,4.3
					l-2.1-4.4c-0.5-1.1-2-1.1-2.5,0l-2.1,4.4c-1.3-2.3-3.5-4.4-3.5-4.4l-1.6,2.3c1.8,0.5,3.4,1.6,4.5,2.5l-4.8,0.7
					c-1.2,0.2-1.6,1.6-0.8,2.4l3.6,3.6c-2.2,0.8-4,2.3-4,2.3l2,2c0.6-1.3,1.3-2.4,2-3.1l-0.7,4.3c-0.2,1.2,1,2.1,2,1.5l4-2.2
					c-0.3,0.9-0.6,1.9-0.7,2.5h2.7c0,0-0.3-1.2-0.6-2.5l3.9,2.1c1,0.5,2.2-0.3,2-1.5l-0.7-4.1c0.6,0.7,1.3,1.7,1.8,2.9l2-2
					c0,0-1.8-1.5-4-2.2L-1135.9-735z"/>
				<ellipse class="st7" cx="-1145.3" cy="-732.9" rx="3.7" ry="3.8"/>
				<path class="st6" d="M-896.3-849.7c3.3,7.1,3.9,15.5,1,23.4c-5.7,15.3-22.5,23-37.4,17.2c-1-0.4-1.9-0.8-2.8-1.3
					c3.1,6.6,8.6,12.1,15.8,14.9c15,5.8,31.7-1.8,37.4-17.1C-877-827-883.2-843-896.3-849.7z"/>
				<ellipse class="st8" cx="-1145.3" cy="-733" rx="0.9" ry="4"/>
				<path class="st6" d="M-1228.1-710.3l-1.9-1l-1.9,1c-0.4,0.2-0.9-0.1-0.8-0.6l0.4-2.2l-1.5-1.5c-0.3-0.3-0.1-0.9,0.3-1l2.1-0.3
					l0.9-2c0.2-0.4,0.8-0.4,1,0l0.9,2l2.1,0.3c0.5,0.1,0.7,0.7,0.3,1l-1.5,1.5l0.4,2.2C-1227.2-710.4-1227.7-710-1228.1-710.3z"/>
				<path class="st6" d="M-813.9-710.3l-1.9-1l-1.9,1c-0.4,0.2-0.9-0.1-0.8-0.6l0.4-2.2l-1.5-1.5c-0.3-0.3-0.1-0.9,0.3-1l2.1-0.3
					l1-2c0.2-0.4,0.8-0.4,1,0l1,2l2.1,0.3c0.5,0.1,0.7,0.7,0.3,1l-1.5,1.5l0.4,2.2C-813-710.4-813.5-710-813.9-710.3z"/>
				<path class="st6" d="M-813.9-847.3l-1.9-1l-1.9,1c-0.4,0.2-0.9-0.1-0.8-0.6l0.4-2.2l-1.5-1.5c-0.3-0.3-0.1-0.9,0.3-1l2.1-0.3
					l1-2c0.2-0.4,0.8-0.4,1,0l1,2l2.1,0.3c0.5,0.1,0.7,0.7,0.3,1l-1.5,1.5l0.4,2.2C-813-847.4-813.5-847-813.9-847.3z"/>
				<path class="st6" d="M-1228.6-847.3l-1.9-1l-1.9,1c-0.4,0.2-0.9-0.1-0.8-0.6l0.4-2.2l-1.5-1.5c-0.3-0.3-0.2-0.9,0.3-1l2.1-0.3
					l1-2c0.2-0.4,0.8-0.4,1,0l1,2l2.1,0.3c0.5,0.1,0.7,0.7,0.3,1l-1.5,1.5l0.4,2.2C-1227.7-847.4-1228.2-847-1228.6-847.3z"/>
				<rect x="-1241.6" y="-862.3" class="st9" width="438" height="159.3"/>
				<rect x="-1236.5" y="-857.5" class="st10" width="427.4" height="149.7"/>
			</g>
		</g>
		<g class="st2">
			<defs>
				<polygon id="SVGID_7_" points="-793.6,-878 -1309.6,-878 -1309.6,-658 -793.6,-658 -573.6,-878 				"/>
			</defs>
			<clipPath id="SVGID_8_">
				<use xlink:href="#SVGID_7_"  style="overflow:visible;"/>
			</clipPath>
			<polygon class="st11" points="-793.6,-878 -1309.6,-878 -1309.6,-658 -793.6,-658 -573.6,-878 			"/>
		</g>
		<g class="st2">
			<defs>
				<polygon id="SVGID_9_" points="-793.6,-878 -1309.6,-878 -1309.6,-658 -793.6,-658 -573.6,-878 				"/>
			</defs>
			<clipPath id="SVGID_10_">
				<use xlink:href="#SVGID_9_"  style="overflow:visible;"/>
			</clipPath>
			<polygon class="st12" points="-1255.6,-864 -1255.6,-701 -1301.6,-782.7 			"/>
		</g>
	</g>
	<g>
		<g>
			<defs>
				<polygon id="SVGID_11_" points="187.7,202 610.4,202 610.4,0 187.7,0 7.4,202 				"/>
			</defs>
			<clipPath id="SVGID_12_">
				<use xlink:href="#SVGID_11_"  style="overflow:visible;"/>
			</clipPath>
			<polygon class="st13" points="187.7,202 610.4,202 610.4,0 187.7,0 7.4,202 			"/>
		</g>
		<g>
			<defs>
				<polygon id="SVGID_13_" points="187.7,202 610.4,202 610.4,0 187.7,0 7.4,202 				"/>
			</defs>
			<clipPath id="SVGID_14_">
				<use xlink:href="#SVGID_13_"  style="overflow:visible;"/>
			</clipPath>
			<polygon class="st14" points="187.7,-0.9 622,-0.9 624.5,25.7 196.9,25.7 13.3,231.5 -0.8,210.3 			"/>
		</g>
	</g>
</g>
<g id="レイヤー_2_1_" class="st15">
	
		<image style="display:inline;overflow:visible;enable-background:new    ;" width="1920" height="1080" xlink:href="10337772.png"  transform="matrix(1 0 0 1 -1309.5895 -878)">
	</image>
</g>
</svg>
